# Test Code
v 0 0 -0.0007177122270549716
v 0.16666667 0 -0.0008093772767963056
v 0.33333334 0 -0.0008516652444137498
v 0.5 0 -0.000799885672963792
v 0 0.096225046 0.006135832399312143
v 0.16690702599051063 0.09518079913087084 0.0058060834484112605
v 0.33333334 0.096225046 0.0061170271668222
v 0 0.19245009 0.062482414092522816
v 0.16666667 0.19245009 0.06248214157414799
v 0 0.28867513 0.010563657850121547
v 0 -0 -0.0007177122270549716
v 0.16666667 -0 -0.0008093772767963056
v 0.33333334 -0 -0.0008516652444137498
v 0.5 -0 -0.000799885672963792
v 0 -0.096225046 0.006135832399312143
v 0.16690702599051063 -0.09518079913087084 0.0058060834484112605
v 0.33333334 -0.096225046 0.0061170271668222
v 0 -0.19245009 0.062482414092522816
v 0.16666667 -0.19245009 0.06248214157414799
v 0 -0.28867513 0.010563657850121547
v -0 0 -0.0007177122270549716
v -0.16666667 0 -0.0008093772767963056
v -0.33333334 0 -0.0008516652444137498
v -0.5 0 -0.000799885672963792
v -0 0.096225046 0.006135832399312143
v -0.16690702599051063 0.09518079913087084 0.0058060834484112605
v -0.33333334 0.096225046 0.0061170271668222
v -0 0.19245009 0.062482414092522816
v -0.16666667 0.19245009 0.06248214157414799
v -0 0.28867513 0.010563657850121547
v -0 -0 -0.0007177122270549716
v -0.16666667 -0 -0.0008093772767963056
v -0.33333334 -0 -0.0008516652444137498
v -0.5 -0 -0.000799885672963792
v -0 -0.096225046 0.006135832399312143
v -0.16690702599051063 -0.09518079913087084 0.0058060834484112605
v -0.33333334 -0.096225046 0.0061170271668222
v -0 -0.19245009 0.062482414092522816
v -0.16666667 -0.19245009 0.06248214157414799
v -0 -0.28867513 0.010563657850121547
vn 0 0 1
vn -1 0 0
vn 1 0 0
vn 0 -1 0
vn 0 1 0
vn 0 0 1
f 1//1 2//1 5//1 
f 5//1 2//1 6//1 
f 2//1 3//1 6//1 
f 6//1 3//1 7//1 
f 3//1 4//1 7//1 
f 5//1 6//1 8//1 
f 8//1 6//1 9//1 
f 6//1 7//1 9//1 
f 8//1 9//1 10//1 
f 15//1 12//1 11//1 
f 16//1 12//1 15//1 
f 16//1 13//1 12//1 
f 17//1 13//1 16//1 
f 17//1 14//1 13//1 
f 18//1 16//1 15//1 
f 19//1 16//1 18//1 
f 19//1 17//1 16//1 
f 20//1 19//1 18//1 
f 25//1 22//1 21//1 
f 26//1 22//1 25//1 
f 26//1 23//1 22//1 
f 27//1 23//1 26//1 
f 27//1 24//1 23//1 
f 28//1 26//1 25//1 
f 29//1 26//1 28//1 
f 29//1 27//1 26//1 
f 30//1 29//1 28//1 
f 31//1 32//1 35//1 
f 35//1 32//1 36//1 
f 32//1 33//1 36//1 
f 36//1 33//1 37//1 
f 33//1 34//1 37//1 
f 35//1 36//1 38//1 
f 38//1 36//1 39//1 
f 36//1 37//1 39//1 
f 38//1 39//1 40//1 
