  0
SECTION
  2
HEADER
  9
$ACADVER
  1
AC1009
  0
ENDSEC
  0
SECTION
  2
BLOCKS
  0
ENDSEC
  0
SECTION
  2
ENTITIES
  0
LINE
  8
CutLine
  6
CONTINUOUS
 62
8
 10
54.306202
 20
0.000000
 11
50.066092
 21
0.146513
  0
LINE
  8
CutLine
  6
CONTINUOUS
 62
8
 10
50.066092
 20
0.146513
 11
37.721285
 21
13.374977
  0
LINE
  8
CutLine
  6
CONTINUOUS
 62
8
 10
37.721285
 20
13.374977
 11
37.867797
 21
17.615087
  0
LINE
  8
CutLine
  6
CONTINUOUS
 62
8
 10
55.626484
 20
102.812626
 11
59.866761
 21
102.671026
  0
LINE
  8
CutLine
  6
CONTINUOUS
 62
8
 10
59.866761
 20
102.671026
 11
72.222571
 21
89.461486
  0
LINE
  8
CutLine
  6
CONTINUOUS
 62
8
 10
72.222571
 20
89.461486
 11
72.080972
 21
85.221209
  0
LINE
  8
CutLine
  6
CONTINUOUS
 62
8
 10
37.888281
 20
17.617586
 11
33.647374
 21
17.738868
  0
LINE
  8
CutLine
  6
CONTINUOUS
 62
8
 10
33.647374
 20
17.738868
 11
21.310203
 21
30.802454
  0
LINE
  8
CutLine
  6
CONTINUOUS
 62
8
 10
21.310203
 20
30.802454
 11
21.431485
 21
35.043361
  0
LINE
  8
CutLine
  6
CONTINUOUS
 62
8
 10
21.431485
 20
35.043361
 11
17.189488
 21
35.117304
  0
LINE
  8
CutLine
  6
CONTINUOUS
 62
8
 10
17.189488
 20
35.117304
 11
4.926056
 21
47.815858
  0
LINE
  8
CutLine
  6
CONTINUOUS
 62
8
 10
4.926056
 20
47.815858
 11
5.000000
 21
52.057855
  0
LINE
  8
CutLine
  6
CONTINUOUS
 62
8
 10
72.058251
 20
85.220904
 11
76.299358
 21
85.106801
  0
LINE
  8
CutLine
  6
CONTINUOUS
 62
8
 10
76.299358
 20
85.106801
 11
88.656449
 21
72.066408
  0
LINE
  8
CutLine
  6
CONTINUOUS
 62
8
 10
88.656449
 20
72.066408
 11
88.542346
 21
67.825302
  0
LINE
  8
CutLine
  6
CONTINUOUS
 62
8
 10
88.542346
 20
67.825302
 11
92.784299
 21
67.748953
  0
LINE
  8
CutLine
  6
CONTINUOUS
 62
8
 10
92.784299
 20
67.748953
 11
105.073648
 21
55.009113
  0
LINE
  8
CutLine
  6
CONTINUOUS
 62
8
 10
105.073648
 20
55.009113
 11
104.997298
 21
50.767159
  0
LINE
  8
MountainLine
  6
CONTINUOUS
 62
5
 10
54.532925
 20
17.388622
 11
37.867797
 21
17.615087
  0
LINE
  8
MountainLine
  6
CONTINUOUS
 62
5
 10
37.867797
 20
17.615087
 11
54.306202
 21
0.000000
  0
LINE
  8
MountainLine
  6
CONTINUOUS
 62
5
 10
54.306202
 20
0.000000
 11
54.532925
 21
17.388622
  0
LINE
  8
CutLine
  6
CONTINUOUS
 62
8
 10
54.306202
 20
0.000000
 11
71.202643
 21
17.166352
  0
LINE
  8
MountainLine
  6
CONTINUOUS
 62
5
 10
71.202643
 20
17.166352
 11
54.537457
 21
17.388560
  0
LINE
  8
CutLine
  6
CONTINUOUS
 62
8
 10
55.626484
 20
102.812626
 11
38.750102
 21
85.626552
  0
LINE
  8
MountainLine
  6
CONTINUOUS
 62
5
 10
38.750102
 20
85.626552
 11
55.415536
 21
85.423807
  0
LINE
  8
MountainLine
  6
CONTINUOUS
 62
5
 10
55.415536
 20
85.423807
 11
55.626484
 21
102.812626
  0
LINE
  8
MountainLine
  6
CONTINUOUS
 62
5
 10
55.415536
 20
85.423807
 11
72.080972
 21
85.221209
  0
LINE
  8
MountainLine
  6
CONTINUOUS
 62
5
 10
72.080972
 20
85.221209
 11
55.626484
 21
102.812626
  0
LINE
  8
ValleyLine
  6
CONTINUOUS
 62
1
 10
38.059430
 20
34.539426
 11
21.431485
 21
35.043361
  0
LINE
  8
MountainLine
  6
CONTINUOUS
 62
5
 10
21.431485
 20
35.043361
 11
37.888281
 21
17.617586
  0
LINE
  8
MountainLine
  6
CONTINUOUS
 62
5
 10
37.888281
 20
17.617586
 11
38.059430
 21
34.539426
  0
LINE
  8
MountainLine
  6
CONTINUOUS
 62
5
 10
54.532925
 20
17.388622
 11
38.059430
 21
34.539426
  0
LINE
  8
ValleyLine
  6
CONTINUOUS
 62
1
 10
54.766579
 20
34.539426
 11
38.059430
 21
34.539426
  0
LINE
  8
ValleyLine
  6
CONTINUOUS
 62
1
 10
54.532925
 20
17.388622
 11
54.766579
 21
34.539426
  0
LINE
  8
ValleyLine
  6
CONTINUOUS
 62
1
 10
21.665683
 20
51.840542
 11
5.000000
 21
52.057855
  0
LINE
  8
MountainLine
  6
CONTINUOUS
 62
5
 10
5.000000
 20
52.057855
 11
21.431485
 21
35.043361
  0
LINE
  8
ValleyLine
  6
CONTINUOUS
 62
1
 10
21.431485
 20
35.043361
 11
21.665683
 21
51.840542
  0
LINE
  8
MountainLine
  6
CONTINUOUS
 62
5
 10
38.059430
 20
34.539426
 11
21.665683
 21
51.840542
  0
LINE
  8
ValleyLine
  6
CONTINUOUS
 62
1
 10
38.330978
 20
51.623235
 11
21.665683
 21
51.840542
  0
LINE
  8
MountainLine
  6
CONTINUOUS
 62
5
 10
38.059430
 20
34.539426
 11
38.330978
 21
51.623235
  0
LINE
  8
ValleyLine
  6
CONTINUOUS
 62
1
 10
54.766579
 20
34.539426
 11
38.330771
 21
51.607358
  0
LINE
  8
ValleyLine
  6
CONTINUOUS
 62
1
 10
54.996341
 20
51.405928
 11
38.330978
 21
51.623235
  0
LINE
  8
MountainLine
  6
CONTINUOUS
 62
5
 10
54.766579
 20
34.539426
 11
54.996341
 21
51.405928
  0
LINE
  8
CutLine
  6
CONTINUOUS
 62
8
 10
71.179932
 20
17.166738
 11
88.103031
 21
34.135059
  0
LINE
  8
ValleyLine
  6
CONTINUOUS
 62
1
 10
88.103031
 20
34.135059
 11
71.467529
 21
34.084290
  0
LINE
  8
MountainLine
  6
CONTINUOUS
 62
5
 10
71.467529
 20
34.084290
 11
71.179932
 21
17.166738
  0
LINE
  8
MountainLine
  6
CONTINUOUS
 62
5
 10
71.467529
 20
34.084290
 11
54.537457
 21
17.388560
  0
LINE
  8
ValleyLine
  6
CONTINUOUS
 62
1
 10
71.467529
 20
34.084290
 11
54.766579
 21
34.539426
  0
LINE
  8
CutLine
  6
CONTINUOUS
 62
8
 10
88.103031
 20
34.135059
 11
104.997298
 21
50.767159
  0
LINE
  8
ValleyLine
  6
CONTINUOUS
 62
1
 10
104.997298
 20
50.767159
 11
88.331576
 21
50.980067
  0
LINE
  8
ValleyLine
  6
CONTINUOUS
 62
1
 10
88.331576
 20
50.980067
 11
88.103031
 21
34.135059
  0
LINE
  8
MountainLine
  6
CONTINUOUS
 62
5
 10
88.326508
 20
50.932386
 11
71.467529
 21
34.084290
  0
LINE
  8
ValleyLine
  6
CONTINUOUS
 62
1
 10
88.331576
 20
50.980067
 11
71.666218
 21
51.192970
  0
LINE
  8
MountainLine
  6
CONTINUOUS
 62
5
 10
71.666218
 20
51.192970
 11
71.467529
 21
34.084290
  0
LINE
  8
ValleyLine
  6
CONTINUOUS
 62
1
 10
71.661253
 20
51.153279
 11
54.766579
 21
34.539426
  0
LINE
  8
ValleyLine
  6
CONTINUOUS
 62
1
 10
71.666218
 20
51.192970
 11
55.000789
 21
51.405873
  0
LINE
  8
CutLine
  6
CONTINUOUS
 62
8
 10
38.772814
 20
85.626193
 11
21.869543
 21
68.638120
  0
LINE
  8
ValleyLine
  6
CONTINUOUS
 62
1
 10
21.869543
 20
68.638120
 11
38.504975
 21
68.708317
  0
LINE
  8
MountainLine
  6
CONTINUOUS
 62
5
 10
38.504975
 20
68.708317
 11
38.772814
 21
85.626193
  0
LINE
  8
MountainLine
  6
CONTINUOUS
 62
5
 10
38.504975
 20
68.708317
 11
55.415536
 21
85.423807
  0
LINE
  8
ValleyLine
  6
CONTINUOUS
 62
1
 10
38.504975
 20
68.708317
 11
55.206444
 21
68.272685
  0
LINE
  8
ValleyLine
  6
CONTINUOUS
 62
1
 10
55.206444
 20
68.272685
 11
55.415536
 21
85.423807
  0
LINE
  8
CutLine
  6
CONTINUOUS
 62
8
 10
21.869543
 20
68.638120
 11
5.000000
 21
52.057855
  0
LINE
  8
ValleyLine
  6
CONTINUOUS
 62
1
 10
21.665683
 20
51.840542
 11
21.869543
 21
68.638120
  0
LINE
  8
MountainLine
  6
CONTINUOUS
 62
5
 10
21.665683
 20
51.840542
 11
38.504975
 21
68.708317
  0
LINE
  8
MountainLine
  6
CONTINUOUS
 62
5
 10
38.330978
 20
51.623235
 11
38.504975
 21
68.708317
  0
LINE
  8
ValleyLine
  6
CONTINUOUS
 62
1
 10
38.331185
 20
51.639113
 11
55.206444
 21
68.272685
  0
LINE
  8
MountainLine
  6
CONTINUOUS
 62
5
 10
54.998565
 20
51.405900
 11
55.206444
 21
68.272685
  0
LINE
  8
ValleyLine
  6
CONTINUOUS
 62
1
 10
71.913570
 20
68.301028
 11
88.542346
 21
67.825302
  0
LINE
  8
MountainLine
  6
CONTINUOUS
 62
5
 10
88.542346
 20
67.825302
 11
72.058251
 21
85.220904
  0
LINE
  8
MountainLine
  6
CONTINUOUS
 62
5
 10
72.058251
 20
85.220904
 11
71.913570
 21
68.301028
  0
LINE
  8
MountainLine
  6
CONTINUOUS
 62
5
 10
55.415536
 20
85.423807
 11
71.913570
 21
68.301028
  0
LINE
  8
ValleyLine
  6
CONTINUOUS
 62
1
 10
55.206444
 20
68.272685
 11
71.913570
 21
68.301028
  0
LINE
  8
MountainLine
  6
CONTINUOUS
 62
5
 10
104.997298
 20
50.767159
 11
88.542346
 21
67.825302
  0
LINE
  8
ValleyLine
  6
CONTINUOUS
 62
1
 10
88.542346
 20
67.825302
 11
88.331576
 21
50.980067
  0
LINE
  8
MountainLine
  6
CONTINUOUS
 62
5
 10
71.913570
 20
68.301028
 11
88.336643
 21
51.027747
  0
LINE
  8
MountainLine
  6
CONTINUOUS
 62
5
 10
71.913570
 20
68.301028
 11
71.666218
 21
51.192970
  0
LINE
  8
ValleyLine
  6
CONTINUOUS
 62
1
 10
55.206444
 20
68.272685
 11
71.671184
 21
51.232660
  0
ENDSEC
  0
EOF
