  0
SECTION
  2
HEADER
  9
$ACADVER
  1
AC1009
  0
ENDSEC
  0
SECTION
  2
BLOCKS
  0
ENDSEC
  0
SECTION
  2
ENTITIES
  0
LINE
  8
CutLine
  6
CONTINUOUS
 62
8
 10
55.160928
 20
0.000000
 11
50.919597
 21
0.105386
  0
LINE
  8
CutLine
  6
CONTINUOUS
 62
8
 10
50.919597
 20
0.105386
 11
38.331929
 21
13.334536
  0
LINE
  8
CutLine
  6
CONTINUOUS
 62
8
 10
38.331929
 20
13.334536
 11
38.437316
 21
17.575868
  0
LINE
  8
CutLine
  6
CONTINUOUS
 62
8
 10
54.881309
 20
103.362922
 11
59.122554
 21
103.254111
  0
LINE
  8
CutLine
  6
CONTINUOUS
 62
8
 10
59.122554
 20
103.254111
 11
71.699536
 21
90.014802
  0
LINE
  8
CutLine
  6
CONTINUOUS
 62
8
 10
71.699536
 20
90.014802
 11
71.590725
 21
85.773557
  0
LINE
  8
CutLine
  6
CONTINUOUS
 62
8
 10
71.590725
 20
85.773557
 11
75.832738
 21
85.700565
  0
LINE
  8
CutLine
  6
CONTINUOUS
 62
8
 10
75.832738
 20
85.700565
 11
88.372544
 21
72.721658
  0
LINE
  8
CutLine
  6
CONTINUOUS
 62
8
 10
88.372544
 20
72.721658
 11
88.299577
 21
68.481103
  0
LINE
  8
CutLine
  6
CONTINUOUS
 62
8
 10
88.299577
 20
68.481135
 11
92.542184
 21
68.484097
  0
LINE
  8
CutLine
  6
CONTINUOUS
 62
8
 10
92.542184
 20
68.484097
 11
104.997530
 21
56.046130
  0
LINE
  8
CutLine
  6
CONTINUOUS
 62
8
 10
104.997530
 20
56.046130
 11
105.000492
 21
51.803491
  0
LINE
  8
CutLine
  6
CONTINUOUS
 62
8
 10
38.437316
 20
17.575868
 11
34.195245
 21
17.645435
  0
LINE
  8
CutLine
  6
CONTINUOUS
 62
8
 10
34.195245
 20
17.645435
 11
21.644964
 21
30.614212
  0
LINE
  8
CutLine
  6
CONTINUOUS
 62
8
 10
21.644964
 20
30.614212
 11
21.714508
 21
34.854825
  0
LINE
  8
CutLine
  6
CONTINUOUS
 62
8
 10
21.714507
 20
34.854793
 11
17.471899
 21
34.853522
  0
LINE
  8
CutLine
  6
CONTINUOUS
 62
8
 10
17.471899
 20
34.853522
 11
5.001271
 21
47.316677
  0
LINE
  8
CutLine
  6
CONTINUOUS
 62
8
 10
5.001271
 20
47.316677
 11
5.000000
 21
51.559318
  0
LINE
  8
MountainLine
  6
CONTINUOUS
 62
5
 10
55.103895
 20
17.629804
 11
38.437316
 21
17.575868
  0
LINE
  8
MountainLine
  6
CONTINUOUS
 62
5
 10
38.437316
 20
17.575868
 11
55.160928
 21
0.000000
  0
LINE
  8
MountainLine
  6
CONTINUOUS
 62
5
 10
55.160928
 20
0.000000
 11
55.103895
 21
17.629804
  0
LINE
  8
CutLine
  6
CONTINUOUS
 62
8
 10
55.160928
 20
0.000000
 11
71.770475
 21
17.683706
  0
LINE
  8
MountainLine
  6
CONTINUOUS
 62
5
 10
71.770475
 20
17.683706
 11
55.103895
 21
17.629804
  0
LINE
  8
CutLine
  6
CONTINUOUS
 62
8
 10
54.881309
 20
103.362922
 11
38.257490
 21
85.692632
  0
LINE
  8
MountainLine
  6
CONTINUOUS
 62
5
 10
38.257490
 20
85.692632
 11
54.924108
 21
85.733077
  0
LINE
  8
MountainLine
  6
CONTINUOUS
 62
5
 10
54.924108
 20
85.733077
 11
54.881309
 21
103.362922
  0
LINE
  8
MountainLine
  6
CONTINUOUS
 62
5
 10
54.924108
 20
85.733077
 11
71.590725
 21
85.773557
  0
LINE
  8
MountainLine
  6
CONTINUOUS
 62
5
 10
71.590725
 20
85.773557
 11
54.881309
 21
103.362922
  0
LINE
  8
CutLine
  6
CONTINUOUS
 62
8
 10
38.257490
 20
85.692627
 11
21.632801
 21
68.330782
  0
LINE
  8
ValleyLine
  6
CONTINUOUS
 62
1
 10
21.632801
 20
68.330782
 11
37.275051
 21
68.328673
  0
LINE
  8
MountainLine
  6
CONTINUOUS
 62
5
 10
37.275051
 20
68.328673
 11
38.257490
 21
85.692627
  0
LINE
  8
MountainLine
  6
CONTINUOUS
 62
5
 10
37.275087
 20
68.321775
 11
54.924108
 21
85.733077
  0
LINE
  8
ValleyLine
  6
CONTINUOUS
 62
1
 10
37.275051
 20
68.328673
 11
54.966137
 21
68.421964
  0
LINE
  8
MountainLine
  6
CONTINUOUS
 62
5
 10
54.966137
 20
68.421964
 11
54.924108
 21
85.733077
  0
LINE
  8
ValleyLine
  6
CONTINUOUS
 62
1
 10
72.657465
 20
68.407680
 11
88.299552
 21
68.479646
  0
LINE
  8
MountainLine
  6
CONTINUOUS
 62
5
 10
88.299552
 20
68.479646
 11
71.590725
 21
85.773557
  0
LINE
  8
MountainLine
  6
CONTINUOUS
 62
5
 10
71.590725
 20
85.773557
 11
72.657465
 21
68.407680
  0
LINE
  8
MountainLine
  6
CONTINUOUS
 62
5
 10
54.924108
 20
85.733077
 11
72.657465
 21
68.407680
  0
LINE
  8
ValleyLine
  6
CONTINUOUS
 62
1
 10
54.966137
 20
68.421964
 11
72.657465
 21
68.407680
  0
LINE
  8
CutLine
  6
CONTINUOUS
 62
8
 10
21.632765
 20
68.345267
 11
5.000000
 21
51.559318
  0
LINE
  8
ValleyLine
  6
CONTINUOUS
 62
1
 10
5.000000
 20
51.559318
 11
21.666846
 21
51.600014
  0
LINE
  8
MountainLine
  6
CONTINUOUS
 62
5
 10
21.666846
 20
51.600014
 11
21.632765
 21
68.345267
  0
LINE
  8
MountainLine
  6
CONTINUOUS
 62
5
 10
21.666846
 20
51.600014
 11
37.275051
 21
68.328673
  0
LINE
  8
ValleyLine
  6
CONTINUOUS
 62
1
 10
21.666846
 20
51.600014
 11
38.333611
 21
51.640709
  0
LINE
  8
MountainLine
  6
CONTINUOUS
 62
5
 10
38.333611
 20
51.640709
 11
37.275015
 21
68.335570
  0
LINE
  8
MountainLine
  6
CONTINUOUS
 62
5
 10
38.333611
 20
51.640709
 11
54.966137
 21
68.421964
  0
LINE
  8
ValleyLine
  6
CONTINUOUS
 62
1
 10
38.333611
 20
51.640709
 11
55.000253
 21
51.681404
  0
LINE
  8
MountainLine
  6
CONTINUOUS
 62
5
 10
55.000253
 20
51.681404
 11
54.966137
 21
68.421964
  0
LINE
  8
ValleyLine
  6
CONTINUOUS
 62
1
 10
88.333653
 20
51.762795
 11
105.000492
 21
51.803491
  0
LINE
  8
MountainLine
  6
CONTINUOUS
 62
5
 10
105.000492
 20
51.803491
 11
88.299545
 21
68.481135
  0
LINE
  8
MountainLine
  6
CONTINUOUS
 62
5
 10
88.299545
 20
68.481135
 11
88.333653
 21
51.762795
  0
LINE
  8
MountainLine
  6
CONTINUOUS
 62
5
 10
72.657465
 20
68.407680
 11
88.333718
 21
51.735882
  0
LINE
  8
ValleyLine
  6
CONTINUOUS
 62
1
 10
71.666893
 20
51.722100
 11
88.333653
 21
51.762795
  0
LINE
  8
MountainLine
  6
CONTINUOUS
 62
5
 10
72.657465
 20
68.407680
 11
71.666893
 21
51.722100
  0
LINE
  8
MountainLine
  6
CONTINUOUS
 62
5
 10
54.966137
 20
68.421964
 11
71.666926
 21
51.708643
  0
LINE
  8
ValleyLine
  6
CONTINUOUS
 62
1
 10
55.000253
 20
51.681404
 11
71.666893
 21
51.722100
  0
LINE
  8
ValleyLine
  6
CONTINUOUS
 62
1
 10
37.356555
 20
34.940878
 11
21.714532
 21
34.856283
  0
LINE
  8
MountainLine
  6
CONTINUOUS
 62
5
 10
21.714532
 20
34.856283
 11
38.437316
 21
17.575868
  0
LINE
  8
MountainLine
  6
CONTINUOUS
 62
5
 10
38.437316
 20
17.575868
 11
37.356555
 21
34.940878
  0
LINE
  8
MountainLine
  6
CONTINUOUS
 62
5
 10
55.103895
 20
17.629804
 11
37.356555
 21
34.940878
  0
LINE
  8
ValleyLine
  6
CONTINUOUS
 62
1
 10
55.047889
 20
34.940878
 11
37.356555
 21
34.940878
  0
LINE
  8
MountainLine
  6
CONTINUOUS
 62
5
 10
55.103895
 20
17.629804
 11
55.047889
 21
34.940878
  0
LINE
  8
CutLine
  6
CONTINUOUS
 62
8
 10
71.770475
 20
17.683711
 11
88.381141
 21
35.058974
  0
LINE
  8
ValleyLine
  6
CONTINUOUS
 62
1
 10
88.381141
 20
35.058974
 11
72.738894
 21
35.048453
  0
LINE
  8
MountainLine
  6
CONTINUOUS
 62
5
 10
72.738894
 20
35.048453
 11
71.770475
 21
17.683711
  0
LINE
  8
MountainLine
  6
CONTINUOUS
 62
5
 10
72.738852
 20
35.055350
 11
55.103895
 21
17.629804
  0
LINE
  8
ValleyLine
  6
CONTINUOUS
 62
1
 10
72.738894
 20
35.048453
 11
55.047889
 21
34.940878
  0
LINE
  8
MountainLine
  6
CONTINUOUS
 62
5
 10
5.000000
 20
51.559318
 11
21.714540
 21
34.854793
  0
LINE
  8
MountainLine
  6
CONTINUOUS
 62
5
 10
21.714540
 20
34.854793
 11
21.666846
 21
51.600014
  0
LINE
  8
MountainLine
  6
CONTINUOUS
 62
5
 10
37.356555
 20
34.940878
 11
21.666846
 21
51.600014
  0
LINE
  8
MountainLine
  6
CONTINUOUS
 62
5
 10
37.356555
 20
34.940878
 11
38.333611
 21
51.640709
  0
LINE
  8
MountainLine
  6
CONTINUOUS
 62
5
 10
55.047889
 20
34.940878
 11
38.333611
 21
51.640709
  0
LINE
  8
MountainLine
  6
CONTINUOUS
 62
5
 10
55.047889
 20
34.940878
 11
55.000253
 21
51.681404
  0
LINE
  8
CutLine
  6
CONTINUOUS
 62
8
 10
88.381188
 20
35.044488
 11
105.000492
 21
51.803491
  0
LINE
  8
MountainLine
  6
CONTINUOUS
 62
5
 10
88.333653
 20
51.762795
 11
88.381188
 21
35.044488
  0
LINE
  8
MountainLine
  6
CONTINUOUS
 62
5
 10
88.333587
 20
51.789709
 11
72.738894
 21
35.048453
  0
LINE
  8
MountainLine
  6
CONTINUOUS
 62
5
 10
71.666893
 20
51.722100
 11
72.738936
 21
35.041555
  0
LINE
  8
MountainLine
  6
CONTINUOUS
 62
5
 10
71.666861
 20
51.735556
 11
55.047889
 21
34.940878
  0
ENDSEC
  0
EOF
