  0
SECTION
  2
HEADER
  9
$ACADVER
  1
AC1009
  0
ENDSEC
  0
SECTION
  2
BLOCKS
  0
ENDSEC
  0
SECTION
  2
ENTITIES
  0
LINE
  8
CutLine
  6
CONTINUOUS
 62
8
 10
5.584323
 20
0.012101
 11
2.492975
 21
2.917883
  0
LINE
  8
CutLine
  6
CONTINUOUS
 62
8
 10
2.492975
 20
2.917883
 11
2.094218
 21
15.804929
  0
LINE
  8
CutLine
  6
CONTINUOUS
 62
8
 10
2.094218
 20
15.804929
 11
5.000000
 21
18.896277
  0
LINE
  8
CutLine
  6
CONTINUOUS
 62
8
 10
5.000000
 20
18.896277
 11
2.033109
 21
21.929024
  0
LINE
  8
CutLine
  6
CONTINUOUS
 62
8
 10
2.033109
 20
21.929024
 11
2.176708
 21
35.011288
  0
LINE
  8
CutLine
  6
CONTINUOUS
 62
8
 10
2.176708
 20
35.011288
 11
5.209455
 21
37.978180
  0
LINE
  8
CutLine
  6
CONTINUOUS
 62
8
 10
5.338711
 20
38.109113
 11
2.322295
 21
41.092606
  0
LINE
  8
CutLine
  6
CONTINUOUS
 62
8
 10
2.322295
 20
41.092606
 11
2.251492
 21
53.995990
  0
LINE
  8
CutLine
  6
CONTINUOUS
 62
8
 10
2.251492
 20
53.995990
 11
5.234986
 21
57.012406
  0
LINE
  8
CutLine
  6
CONTINUOUS
 62
8
 10
62.579888
 20
38.784619
 11
65.527988
 21
35.733601
  0
LINE
  8
CutLine
  6
CONTINUOUS
 62
8
 10
65.527988
 20
35.733601
 11
65.305723
 21
22.777716
  0
LINE
  8
CutLine
  6
CONTINUOUS
 62
8
 10
65.305723
 20
22.777716
 11
62.254705
 21
19.829617
  0
LINE
  8
CutLine
  6
CONTINUOUS
 62
8
 10
62.232514
 20
57.674639
 11
65.287166
 21
54.730305
  0
LINE
  8
CutLine
  6
CONTINUOUS
 62
8
 10
65.287166
 20
54.730305
 11
65.524223
 21
41.839270
  0
LINE
  8
CutLine
  6
CONTINUOUS
 62
8
 10
65.524223
 20
41.839270
 11
62.579888
 21
38.784619
  0
LINE
  8
CutLine
  6
CONTINUOUS
 62
8
 10
62.247456
 20
19.823086
 11
65.263135
 21
16.838848
  0
LINE
  8
CutLine
  6
CONTINUOUS
 62
8
 10
65.263135
 20
16.838848
 11
65.330826
 21
3.921139
  0
LINE
  8
CutLine
  6
CONTINUOUS
 62
8
 10
65.330826
 20
3.921139
 11
62.346587
 21
0.905460
  0
LINE
  8
MountainLine
  6
CONTINUOUS
 62
5
 10
14.974243
 20
9.690858
 11
5.000000
 21
18.896277
  0
LINE
  8
MountainLine
  6
CONTINUOUS
 62
5
 10
5.000000
 20
18.896277
 11
5.584323
 21
0.012101
  0
LINE
  8
ValleyLine
  6
CONTINUOUS
 62
1
 10
5.584323
 20
0.012101
 11
14.974243
 21
9.690858
  0
LINE
  8
ValleyLine
  6
CONTINUOUS
 62
1
 10
12.924396
 20
29.517153
 11
5.209455
 21
37.978180
  0
LINE
  8
MountainLine
  6
CONTINUOUS
 62
5
 10
5.209455
 20
37.978180
 11
5.000000
 21
18.896277
  0
LINE
  8
MountainLine
  6
CONTINUOUS
 62
5
 10
5.000000
 20
18.896277
 11
12.924396
 21
29.517153
  0
LINE
  8
ValleyLine
  6
CONTINUOUS
 62
1
 10
14.974243
 20
9.690858
 11
12.857554
 21
29.443129
  0
LINE
  8
CutLine
  6
CONTINUOUS
 62
8
 10
5.584323
 20
0.012101
 11
24.477534
 21
0.000000
  0
LINE
  8
MountainLine
  6
CONTINUOUS
 62
5
 10
24.477534
 20
0.000000
 11
14.974243
 21
9.690858
  0
LINE
  8
CutLine
  6
CONTINUOUS
 62
8
 10
24.477534
 20
0.000000
 11
43.423780
 21
0.661504
  0
LINE
  8
ValleyLine
  6
CONTINUOUS
 62
1
 10
43.423780
 20
0.661504
 11
34.781562
 21
8.173387
  0
LINE
  8
MountainLine
  6
CONTINUOUS
 62
5
 10
34.781562
 20
8.173387
 11
24.477534
 21
0.000000
  0
LINE
  8
ValleyLine
  6
CONTINUOUS
 62
1
 10
34.781562
 20
8.173387
 11
14.974243
 21
9.690858
  0
LINE
  8
ValleyLine
  6
CONTINUOUS
 62
1
 10
24.269816
 20
19.272367
 11
12.924396
 21
29.517153
  0
LINE
  8
ValleyLine
  6
CONTINUOUS
 62
1
 10
14.974243
 20
9.690858
 11
24.269816
 21
19.272367
  0
LINE
  8
ValleyLine
  6
CONTINUOUS
 62
1
 10
34.781562
 20
8.173387
 11
24.269816
 21
19.272367
  0
LINE
  8
MountainLine
  6
CONTINUOUS
 62
5
 10
14.763403
 20
47.651604
 11
5.234986
 21
57.012406
  0
LINE
  8
MountainLine
  6
CONTINUOUS
 62
5
 10
5.234986
 20
57.012406
 11
5.338711
 21
38.109113
  0
LINE
  8
MountainLine
  6
CONTINUOUS
 62
5
 10
5.338711
 20
38.109113
 11
14.763403
 21
47.651604
  0
LINE
  8
ValleyLine
  6
CONTINUOUS
 62
1
 10
12.924396
 20
29.517153
 11
14.727099
 21
47.614651
  0
LINE
  8
MountainLine
  6
CONTINUOUS
 62
5
 10
24.279397
 20
38.303007
 11
14.763403
 21
47.651604
  0
LINE
  8
MountainLine
  6
CONTINUOUS
 62
5
 10
12.991238
 20
29.591176
 11
24.279397
 21
38.303007
  0
LINE
  8
ValleyLine
  6
CONTINUOUS
 62
1
 10
24.269816
 20
19.272367
 11
24.279397
 21
38.303007
  0
LINE
  8
MountainLine
  6
CONTINUOUS
 62
5
 10
33.790782
 20
28.958937
 11
24.279397
 21
38.303007
  0
LINE
  8
MountainLine
  6
CONTINUOUS
 62
5
 10
24.269816
 20
19.272367
 11
33.790782
 21
28.958937
  0
LINE
  8
CutLine
  6
CONTINUOUS
 62
8
 10
43.430181
 20
0.668868
 11
62.346587
 21
0.905460
  0
LINE
  8
MountainLine
  6
CONTINUOUS
 62
5
 10
62.346587
 20
0.905460
 11
52.818141
 21
10.266291
  0
LINE
  8
MountainLine
  6
CONTINUOUS
 62
5
 10
52.818141
 20
10.266291
 11
43.430181
 21
0.668868
  0
LINE
  8
ValleyLine
  6
CONTINUOUS
 62
1
 10
52.772427
 20
10.219759
 11
34.781562
 21
8.173387
  0
LINE
  8
MountainLine
  6
CONTINUOUS
 62
5
 10
52.818141
 20
10.266291
 11
43.302166
 21
19.614869
  0
LINE
  8
MountainLine
  6
CONTINUOUS
 62
5
 10
43.302166
 20
19.614869
 11
34.781562
 21
8.173387
  0
LINE
  8
ValleyLine
  6
CONTINUOUS
 62
1
 10
43.297463
 20
19.610081
 11
24.269816
 21
19.272367
  0
LINE
  8
MountainLine
  6
CONTINUOUS
 62
5
 10
43.302166
 20
19.614869
 11
33.790782
 21
28.958937
  0
LINE
  8
CutLine
  6
CONTINUOUS
 62
8
 10
43.340943
 20
57.923756
 11
24.265762
 21
57.375710
  0
LINE
  8
ValleyLine
  6
CONTINUOUS
 62
1
 10
24.265762
 20
57.375710
 11
32.862364
 21
49.812132
  0
LINE
  8
MountainLine
  6
CONTINUOUS
 62
5
 10
32.862364
 20
49.812132
 11
43.340943
 21
57.923756
  0
LINE
  8
CutLine
  6
CONTINUOUS
 62
8
 10
62.232514
 20
57.674639
 11
43.340943
 21
57.923756
  0
LINE
  8
MountainLine
  6
CONTINUOUS
 62
5
 10
43.340943
 20
57.923756
 11
52.721913
 21
48.114441
  0
LINE
  8
ValleyLine
  6
CONTINUOUS
 62
1
 10
52.721913
 20
48.114441
 11
62.232514
 21
57.674639
  0
LINE
  8
ValleyLine
  6
CONTINUOUS
 62
1
 10
32.935190
 20
49.880277
 11
52.721913
 21
48.114441
  0
LINE
  8
ValleyLine
  6
CONTINUOUS
 62
1
 10
54.590642
 20
28.337170
 11
62.254705
 21
19.829617
  0
LINE
  8
MountainLine
  6
CONTINUOUS
 62
5
 10
62.254705
 20
19.829617
 11
62.579888
 21
38.784619
  0
LINE
  8
MountainLine
  6
CONTINUOUS
 62
5
 10
62.579888
 20
38.784619
 11
54.590642
 21
28.337170
  0
LINE
  8
MountainLine
  6
CONTINUOUS
 62
5
 10
52.721913
 20
48.114441
 11
62.579888
 21
38.784619
  0
LINE
  8
MountainLine
  6
CONTINUOUS
 62
5
 10
62.579888
 20
38.784619
 11
62.232514
 21
57.674639
  0
LINE
  8
ValleyLine
  6
CONTINUOUS
 62
1
 10
52.721913
 20
48.114441
 11
54.590642
 21
28.337170
  0
LINE
  8
ValleyLine
  6
CONTINUOUS
 62
1
 10
32.862364
 20
49.812132
 11
43.306870
 21
38.650300
  0
LINE
  8
ValleyLine
  6
CONTINUOUS
 62
1
 10
43.306870
 20
38.650300
 11
52.721913
 21
48.114441
  0
LINE
  8
ValleyLine
  6
CONTINUOUS
 62
1
 10
43.306870
 20
38.650300
 11
54.590642
 21
28.337170
  0
LINE
  8
CutLine
  6
CONTINUOUS
 62
8
 10
24.137143
 20
57.244151
 11
5.234986
 21
57.012406
  0
LINE
  8
MountainLine
  6
CONTINUOUS
 62
5
 10
14.763403
 20
47.651604
 11
24.137143
 21
57.244151
  0
LINE
  8
ValleyLine
  6
CONTINUOUS
 62
1
 10
14.799706
 20
47.688558
 11
32.862364
 21
49.812132
  0
LINE
  8
MountainLine
  6
CONTINUOUS
 62
5
 10
24.279397
 20
38.303007
 11
32.789539
 21
49.743986
  0
LINE
  8
ValleyLine
  6
CONTINUOUS
 62
1
 10
24.279397
 20
38.303007
 11
43.306870
 21
38.650300
  0
LINE
  8
MountainLine
  6
CONTINUOUS
 62
5
 10
33.790782
 20
28.958937
 11
43.306870
 21
38.650300
  0
LINE
  8
MountainLine
  6
CONTINUOUS
 62
5
 10
62.346587
 20
0.905460
 11
62.247456
 21
19.823086
  0
LINE
  8
MountainLine
  6
CONTINUOUS
 62
5
 10
62.247456
 20
19.823086
 11
52.818141
 21
10.266291
  0
LINE
  8
ValleyLine
  6
CONTINUOUS
 62
1
 10
54.590642
 20
28.337170
 11
52.863854
 21
10.312823
  0
LINE
  8
MountainLine
  6
CONTINUOUS
 62
5
 10
54.590642
 20
28.337170
 11
43.302166
 21
19.614869
  0
LINE
  8
ValleyLine
  6
CONTINUOUS
 62
1
 10
43.306870
 20
38.650300
 11
43.306870
 21
19.619657
  0
ENDSEC
  0
EOF
