# Test Code
v 0 0 0.002699079837364275
v 0.16666667 0 0.0026997363314813978
v 0.33333334 0 0.0034973515648865122
v 0.5 0 0.007225567653478771
v 0 0.096225046 0.10131051343872528
v 0.16628900191624907 0.07475496733673437 0.09633420270844205
v 0.33333334 0.096225046 0.08738864940459613
v 0 0.19245009 0.061730276747222194
v 0.16666667 0.19245009 -0.02043302510498338
v 0 0.28867513 0.002262369999922956
v 0 -0 0.002699079837364275
v 0.16666667 -0 0.0026997363314813978
v 0.33333334 -0 0.0034973515648865122
v 0.5 -0 0.007225567653478771
v 0 -0.096225046 0.10131051343872528
v 0.16628900191624907 -0.07475496733673437 0.09633420270844205
v 0.33333334 -0.096225046 0.08738864940459613
v 0 -0.19245009 0.061730276747222194
v 0.16666667 -0.19245009 -0.02043302510498338
v 0 -0.28867513 0.002262369999922956
v -0 0 0.002699079837364275
v -0.16666667 0 0.0026997363314813978
v -0.33333334 0 0.0034973515648865122
v -0.5 0 0.007225567653478771
v -0 0.096225046 0.10131051343872528
v -0.16628900191624907 0.07475496733673437 0.09633420270844205
v -0.33333334 0.096225046 0.08738864940459613
v -0 0.19245009 0.061730276747222194
v -0.16666667 0.19245009 -0.02043302510498338
v -0 0.28867513 0.002262369999922956
v -0 -0 0.002699079837364275
v -0.16666667 -0 0.0026997363314813978
v -0.33333334 -0 0.0034973515648865122
v -0.5 -0 0.007225567653478771
v -0 -0.096225046 0.10131051343872528
v -0.16628900191624907 -0.07475496733673437 0.09633420270844205
v -0.33333334 -0.096225046 0.08738864940459613
v -0 -0.19245009 0.061730276747222194
v -0.16666667 -0.19245009 -0.02043302510498338
v -0 -0.28867513 0.002262369999922956
vn 0 0 1
vn -1 0 0
vn 1 0 0
vn 0 -1 0
vn 0 1 0
vn 0 0 1
f 1//1 2//1 5//1 
f 5//1 2//1 6//1 
f 2//1 3//1 6//1 
f 6//1 3//1 7//1 
f 3//1 4//1 7//1 
f 5//1 6//1 8//1 
f 8//1 6//1 9//1 
f 6//1 7//1 9//1 
f 8//1 9//1 10//1 
f 15//1 12//1 11//1 
f 16//1 12//1 15//1 
f 16//1 13//1 12//1 
f 17//1 13//1 16//1 
f 17//1 14//1 13//1 
f 18//1 16//1 15//1 
f 19//1 16//1 18//1 
f 19//1 17//1 16//1 
f 20//1 19//1 18//1 
f 25//1 22//1 21//1 
f 26//1 22//1 25//1 
f 26//1 23//1 22//1 
f 27//1 23//1 26//1 
f 27//1 24//1 23//1 
f 28//1 26//1 25//1 
f 29//1 26//1 28//1 
f 29//1 27//1 26//1 
f 30//1 29//1 28//1 
f 31//1 32//1 35//1 
f 35//1 32//1 36//1 
f 32//1 33//1 36//1 
f 36//1 33//1 37//1 
f 33//1 34//1 37//1 
f 35//1 36//1 38//1 
f 38//1 36//1 39//1 
f 36//1 37//1 39//1 
f 38//1 39//1 40//1 
