  0
SECTION
  2
HEADER
  9
$ACADVER
  1
AC1009
  0
ENDSEC
  0
SECTION
  2
BLOCKS
  0
ENDSEC
  0
SECTION
  2
ENTITIES
  0
LINE
  8
CutLine
  6
CONTINUOUS
 62
8
 10
73.245402
 20
27.534450
 11
76.941351
 21
24.677220
  0
LINE
  8
CutLine
  6
CONTINUOUS
 62
8
 10
76.941351
 20
24.677220
 11
79.626674
 21
3.695949
  0
LINE
  8
CutLine
  6
CONTINUOUS
 62
8
 10
79.626674
 20
3.695949
 11
76.769444
 21
-0.000000
  0
LINE
  8
CutLine
  6
CONTINUOUS
 62
8
 10
8.524042
 20
71.247715
 11
4.828093
 21
74.104944
  0
LINE
  8
CutLine
  6
CONTINUOUS
 62
8
 10
4.828093
 20
74.104944
 11
2.142770
 21
95.086215
  0
LINE
  8
CutLine
  6
CONTINUOUS
 62
8
 10
2.142770
 20
95.086215
 11
5.000000
 21
98.782164
  0
LINE
  8
CutLine
  6
CONTINUOUS
 62
8
 10
73.245402
 20
50.218472
 11
76.548718
 21
46.915155
  0
LINE
  8
CutLine
  6
CONTINUOUS
 62
8
 10
76.548718
 20
46.915155
 11
76.548718
 21
30.837766
  0
LINE
  8
CutLine
  6
CONTINUOUS
 62
8
 10
76.548718
 20
30.837766
 11
73.245402
 21
27.534450
  0
LINE
  8
CutLine
  6
CONTINUOUS
 62
8
 10
73.245402
 20
72.902492
 11
76.548718
 21
69.599176
  0
LINE
  8
CutLine
  6
CONTINUOUS
 62
8
 10
76.548718
 20
69.599176
 11
76.548718
 21
53.521788
  0
LINE
  8
CutLine
  6
CONTINUOUS
 62
8
 10
76.548718
 20
53.521788
 11
73.245402
 21
50.218472
  0
LINE
  8
CutLine
  6
CONTINUOUS
 62
8
 10
8.524042
 20
48.563693
 11
5.220726
 21
51.867009
  0
LINE
  8
CutLine
  6
CONTINUOUS
 62
8
 10
5.220726
 20
51.867009
 11
5.220726
 21
67.944398
  0
LINE
  8
CutLine
  6
CONTINUOUS
 62
8
 10
5.220726
 20
67.944398
 11
8.524042
 21
71.247715
  0
LINE
  8
CutLine
  6
CONTINUOUS
 62
8
 10
8.524042
 20
25.879672
 11
5.220726
 21
29.182989
  0
LINE
  8
CutLine
  6
CONTINUOUS
 62
8
 10
5.220726
 20
29.182989
 11
5.220726
 21
45.260376
  0
LINE
  8
CutLine
  6
CONTINUOUS
 62
8
 10
5.220726
 20
45.260376
 11
8.524042
 21
48.563693
  0
LINE
  8
MountainLine
  6
CONTINUOUS
 62
5
 10
76.769444
 20
0.000000
 11
73.245402
 21
27.534450
  0
LINE
  8
ValleyLine
  6
CONTINUOUS
 62
1
 10
73.245402
 20
27.534450
 11
62.458508
 21
19.697313
  0
LINE
  8
MountainLine
  6
CONTINUOUS
 62
5
 10
62.458508
 20
19.697313
 11
76.769444
 21
0.000000
  0
LINE
  8
ValleyLine
  6
CONTINUOUS
 62
1
 10
62.458508
 20
19.697313
 11
51.671615
 21
11.860176
  0
LINE
  8
CutLine
  6
CONTINUOUS
 62
8
 10
51.671615
 20
11.860176
 11
76.769444
 21
0.000000
  0
LINE
  8
ValleyLine
  6
CONTINUOUS
 62
1
 10
19.310936
 20
79.084852
 11
30.097829
 21
86.921989
  0
LINE
  8
CutLine
  6
CONTINUOUS
 62
8
 10
30.097829
 20
86.921989
 11
5.000000
 21
98.782164
  0
LINE
  8
MountainLine
  6
CONTINUOUS
 62
5
 10
5.000000
 20
98.782164
 11
19.310936
 21
79.084852
  0
LINE
  8
MountainLine
  6
CONTINUOUS
 62
5
 10
5.000000
 20
98.782164
 11
8.524042
 21
71.247715
  0
LINE
  8
ValleyLine
  6
CONTINUOUS
 62
1
 10
8.524042
 20
71.247715
 11
19.310936
 21
79.084852
  0
LINE
  8
MountainLine
  6
CONTINUOUS
 62
5
 10
40.884722
 20
72.075104
 11
51.671616
 21
79.912240
  0
LINE
  8
CutLine
  6
CONTINUOUS
 62
8
 10
51.671616
 20
79.912240
 11
30.097829
 21
86.921989
  0
LINE
  8
MountainLine
  6
CONTINUOUS
 62
5
 10
30.097829
 20
86.921989
 11
40.884722
 21
72.075104
  0
LINE
  8
MountainLine
  6
CONTINUOUS
 62
5
 10
30.097829
 20
64.237967
 11
40.884722
 21
72.075104
  0
LINE
  8
MountainLine
  6
CONTINUOUS
 62
5
 10
40.884722
 20
72.075104
 11
19.310936
 21
79.084852
  0
LINE
  8
MountainLine
  6
CONTINUOUS
 62
5
 10
19.310936
 20
79.084852
 11
30.097829
 21
64.237967
  0
LINE
  8
MountainLine
  6
CONTINUOUS
 62
5
 10
62.458509
 20
65.065356
 11
73.245402
 21
72.902492
  0
LINE
  8
CutLine
  6
CONTINUOUS
 62
8
 10
73.245402
 20
72.902492
 11
51.671616
 21
79.912240
  0
LINE
  8
MountainLine
  6
CONTINUOUS
 62
5
 10
51.671616
 20
79.912240
 11
62.458509
 21
65.065356
  0
LINE
  8
MountainLine
  6
CONTINUOUS
 62
5
 10
40.884722
 20
72.075104
 11
62.458509
 21
65.065356
  0
LINE
  8
MountainLine
  6
CONTINUOUS
 62
5
 10
51.671615
 20
57.228219
 11
62.458509
 21
65.065356
  0
LINE
  8
MountainLine
  6
CONTINUOUS
 62
5
 10
40.884722
 20
72.075104
 11
51.671615
 21
57.228219
  0
LINE
  8
MountainLine
  6
CONTINUOUS
 62
5
 10
30.097829
 20
64.237967
 11
51.671615
 21
57.228219
  0
LINE
  8
MountainLine
  6
CONTINUOUS
 62
5
 10
40.884722
 20
49.391082
 11
51.671615
 21
57.228219
  0
LINE
  8
MountainLine
  6
CONTINUOUS
 62
5
 10
30.097829
 20
64.237967
 11
40.884722
 21
49.391082
  0
LINE
  8
MountainLine
  6
CONTINUOUS
 62
5
 10
73.245402
 20
27.534450
 11
73.245402
 21
50.218472
  0
LINE
  8
MountainLine
  6
CONTINUOUS
 62
5
 10
73.245402
 20
50.218472
 11
62.458508
 21
42.381335
  0
LINE
  8
MountainLine
  6
CONTINUOUS
 62
5
 10
62.458508
 20
42.381335
 11
73.245402
 21
27.534450
  0
LINE
  8
MountainLine
  6
CONTINUOUS
 62
5
 10
62.458508
 20
42.381335
 11
62.458508
 21
19.697313
  0
LINE
  8
MountainLine
  6
CONTINUOUS
 62
5
 10
62.458508
 20
42.381335
 11
51.671615
 21
34.544198
  0
LINE
  8
MountainLine
  6
CONTINUOUS
 62
5
 10
51.671615
 20
34.544198
 11
62.458508
 21
19.697313
  0
LINE
  8
MountainLine
  6
CONTINUOUS
 62
5
 10
73.245402
 20
50.218472
 11
73.245402
 21
72.902492
  0
LINE
  8
MountainLine
  6
CONTINUOUS
 62
5
 10
62.458509
 20
65.065356
 11
73.245402
 21
50.218472
  0
LINE
  8
MountainLine
  6
CONTINUOUS
 62
5
 10
62.458509
 20
65.065356
 11
62.458508
 21
42.381335
  0
LINE
  8
MountainLine
  6
CONTINUOUS
 62
5
 10
51.671615
 20
57.228219
 11
62.458508
 21
42.381335
  0
LINE
  8
MountainLine
  6
CONTINUOUS
 62
5
 10
51.671615
 20
57.228219
 11
51.671615
 21
34.544198
  0
LINE
  8
MountainLine
  6
CONTINUOUS
 62
5
 10
40.884722
 20
49.391082
 11
51.671615
 21
34.544198
  0
LINE
  8
MountainLine
  6
CONTINUOUS
 62
5
 10
40.884721
 20
26.707061
 11
30.097828
 21
18.869924
  0
LINE
  8
CutLine
  6
CONTINUOUS
 62
8
 10
30.097828
 20
18.869924
 11
51.671615
 21
11.860176
  0
LINE
  8
MountainLine
  6
CONTINUOUS
 62
5
 10
51.671615
 20
11.860176
 11
40.884721
 21
26.707061
  0
LINE
  8
MountainLine
  6
CONTINUOUS
 62
5
 10
62.458508
 20
19.697313
 11
40.884721
 21
26.707061
  0
LINE
  8
MountainLine
  6
CONTINUOUS
 62
5
 10
51.671615
 20
34.544198
 11
40.884721
 21
26.707061
  0
LINE
  8
MountainLine
  6
CONTINUOUS
 62
5
 10
19.310935
 20
33.716808
 11
8.524042
 21
25.879672
  0
LINE
  8
CutLine
  6
CONTINUOUS
 62
8
 10
8.524042
 20
25.879672
 11
30.097828
 21
18.869924
  0
LINE
  8
MountainLine
  6
CONTINUOUS
 62
5
 10
30.097828
 20
18.869924
 11
19.310935
 21
33.716808
  0
LINE
  8
MountainLine
  6
CONTINUOUS
 62
5
 10
40.884721
 20
26.707061
 11
19.310935
 21
33.716808
  0
LINE
  8
MountainLine
  6
CONTINUOUS
 62
5
 10
30.097829
 20
41.553945
 11
19.310935
 21
33.716808
  0
LINE
  8
MountainLine
  6
CONTINUOUS
 62
5
 10
40.884721
 20
26.707061
 11
30.097829
 21
41.553945
  0
LINE
  8
MountainLine
  6
CONTINUOUS
 62
5
 10
51.671615
 20
34.544198
 11
30.097829
 21
41.553945
  0
LINE
  8
MountainLine
  6
CONTINUOUS
 62
5
 10
40.884722
 20
49.391082
 11
30.097829
 21
41.553945
  0
LINE
  8
MountainLine
  6
CONTINUOUS
 62
5
 10
8.524042
 20
71.247715
 11
8.524042
 21
48.563693
  0
LINE
  8
MountainLine
  6
CONTINUOUS
 62
5
 10
8.524042
 20
48.563693
 11
19.310936
 21
56.400830
  0
LINE
  8
MountainLine
  6
CONTINUOUS
 62
5
 10
19.310936
 20
56.400830
 11
8.524042
 21
71.247715
  0
LINE
  8
MountainLine
  6
CONTINUOUS
 62
5
 10
19.310936
 20
79.084852
 11
19.310936
 21
56.400830
  0
LINE
  8
MountainLine
  6
CONTINUOUS
 62
5
 10
19.310936
 20
56.400830
 11
30.097829
 21
64.237967
  0
LINE
  8
MountainLine
  6
CONTINUOUS
 62
5
 10
8.524042
 20
48.563693
 11
8.524042
 21
25.879672
  0
LINE
  8
MountainLine
  6
CONTINUOUS
 62
5
 10
19.310935
 20
33.716808
 11
8.524042
 21
48.563693
  0
LINE
  8
MountainLine
  6
CONTINUOUS
 62
5
 10
19.310935
 20
33.716808
 11
19.310936
 21
56.400830
  0
LINE
  8
MountainLine
  6
CONTINUOUS
 62
5
 10
30.097829
 20
41.553945
 11
19.310936
 21
56.400830
  0
LINE
  8
MountainLine
  6
CONTINUOUS
 62
5
 10
30.097829
 20
41.553945
 11
30.097829
 21
64.237967
  0
ENDSEC
  0
EOF
