# Test Code
v 0 0 -0.0032348940456697344
v 0.16666667 0 -0.00268877890268395
v 0.33333334 0 -0.0016969833576622718
v 0.5 0 -0.0011638665447722704
v 0 0.096225046 -0.01577993174096941
v 0.16686624821085635 0.0955114283988554 -0.01603725206097908
v 0.33333334 0.096225046 -0.012404388458285242
v 0 0.19245009 -0.03371868767729275
v 0.16666667 0.19245009 -0.03369950289537255
v 0 0.28867513 -0.006800273558511008
v 0 -0 -0.0032348940456697344
v 0.16666667 -0 -0.00268877890268395
v 0.33333334 -0 -0.0016969833576622718
v 0.5 -0 -0.0011638665447722704
v 0 -0.096225046 -0.01577993174096941
v 0.16686624821085635 -0.0955114283988554 -0.01603725206097908
v 0.33333334 -0.096225046 -0.012404388458285242
v 0 -0.19245009 -0.03371868767729275
v 0.16666667 -0.19245009 -0.03369950289537255
v 0 -0.28867513 -0.006800273558511008
v -0 0 -0.0032348940456697344
v -0.16666667 0 -0.00268877890268395
v -0.33333334 0 -0.0016969833576622718
v -0.5 0 -0.0011638665447722704
v -0 0.096225046 -0.01577993174096941
v -0.16686624821085635 0.0955114283988554 -0.01603725206097908
v -0.33333334 0.096225046 -0.012404388458285242
v -0 0.19245009 -0.03371868767729275
v -0.16666667 0.19245009 -0.03369950289537255
v -0 0.28867513 -0.006800273558511008
v -0 -0 -0.0032348940456697344
v -0.16666667 -0 -0.00268877890268395
v -0.33333334 -0 -0.0016969833576622718
v -0.5 -0 -0.0011638665447722704
v -0 -0.096225046 -0.01577993174096941
v -0.16686624821085635 -0.0955114283988554 -0.01603725206097908
v -0.33333334 -0.096225046 -0.012404388458285242
v -0 -0.19245009 -0.03371868767729275
v -0.16666667 -0.19245009 -0.03369950289537255
v -0 -0.28867513 -0.006800273558511008
vn 0 0 1
vn -1 0 0
vn 1 0 0
vn 0 -1 0
vn 0 1 0
vn 0 0 1
f 1//1 2//1 5//1 
f 5//1 2//1 6//1 
f 2//1 3//1 6//1 
f 6//1 3//1 7//1 
f 3//1 4//1 7//1 
f 5//1 6//1 8//1 
f 8//1 6//1 9//1 
f 6//1 7//1 9//1 
f 8//1 9//1 10//1 
f 15//1 12//1 11//1 
f 16//1 12//1 15//1 
f 16//1 13//1 12//1 
f 17//1 13//1 16//1 
f 17//1 14//1 13//1 
f 18//1 16//1 15//1 
f 19//1 16//1 18//1 
f 19//1 17//1 16//1 
f 20//1 19//1 18//1 
f 25//1 22//1 21//1 
f 26//1 22//1 25//1 
f 26//1 23//1 22//1 
f 27//1 23//1 26//1 
f 27//1 24//1 23//1 
f 28//1 26//1 25//1 
f 29//1 26//1 28//1 
f 29//1 27//1 26//1 
f 30//1 29//1 28//1 
f 31//1 32//1 35//1 
f 35//1 32//1 36//1 
f 32//1 33//1 36//1 
f 36//1 33//1 37//1 
f 33//1 34//1 37//1 
f 35//1 36//1 38//1 
f 38//1 36//1 39//1 
f 36//1 37//1 39//1 
f 38//1 39//1 40//1 
