v 0 0 0.00
v 0.1 0 0.00
v 0.2 0 0.00
v 0.3 0 0.00
v 0.4 0 0.00
v 0.5 0 0.00
v 0 0.057735026 0.1
v 0.080000006 0.057735026 0.1
v 0.16000001 0.057735026 0.1
v 0.24000001 0.057735026 0.1
v 0.32000002 0.057735026 0.1
v 0.4 0.057735026 0.1
v 0 0.11547005 0.00
v 0.060000002 0.11547005 0.00
v 0.120000005 0.11547005 0.00
v 0.18 0.11547005 0.00
v 0.24000001 0.11547005 0.00
v 0.3 0.11547005 0.00
v 0 0.17320508 0.1
v 0.040000003 0.17320508 0.1
v 0.080000006 0.17320508 0.1
v 0.120000005 0.17320508 0.1
v 0.16000001 0.17320508 0.1
v 0.2 0.17320508 0.1
v 0 0.2309401 0.00
v 0.020000001 0.2309401 0.00
v 0.040000003 0.2309401 0.00
v 0.060000002 0.2309401 0.00
v 0.080000006 0.2309401 0.00
v 0.1 0.2309401 0.00
v 0 0.28867513 0.1
vn 0 0 1
f 1//1 2//1 7//1
f 7//1 2//1 8//1
f 2//1 3//1 8//1
f 8//1 3//1 9//1
f 3//1 4//1 9//1
f 9//1 4//1 10//1
f 4//1 5//1 10//1
f 10//1 5//1 11//1
f 5//1 6//1 11//1
f 11//1 6//1 12//1
f 7//1 8//1 13//1
f 13//1 8//1 14//1
f 8//1 9//1 14//1
f 14//1 9//1 15//1
f 9//1 10//1 15//1
f 15//1 10//1 16//1
f 10//1 11//1 16//1
f 16//1 11//1 17//1
f 11//1 12//1 17//1
f 17//1 12//1 18//1
f 13//1 14//1 19//1
f 19//1 14//1 20//1
f 14//1 15//1 20//1
f 20//1 15//1 21//1
f 15//1 16//1 21//1
f 21//1 16//1 22//1
f 16//1 17//1 22//1
f 22//1 17//1 23//1
f 17//1 18//1 23//1
f 23//1 18//1 24//1
f 19//1 20//1 25//1
f 25//1 20//1 26//1
f 20//1 21//1 26//1
f 26//1 21//1 27//1
f 21//1 22//1 27//1
f 27//1 22//1 28//1
f 22//1 23//1 28//1
f 28//1 23//1 29//1
f 23//1 24//1 29//1
f 29//1 24//1 30//1
f 25//1 26//1 31//1
f 26//1 27//1 31//1
f 27//1 28//1 31//1
f 28//1 29//1 31//1
f 29//1 30//1 31//1
