v 0 0 0.0
v 0.125 0 0.00
v 0.25 0 -0.00
v 0.375 0 0.00
v 0.5 0 -0.00
v 0 0.07216878 0.00
v 0.125 0.07216878 -0.00
v 0.25 0.07216878 0.00
v 0.375 0.07216878 -0.00
v 0 0.14433756 0.00
v 0.125 0.14433756 -0.00
v 0.25 0.14433756 0.00
v 0 0.21650635 -0.00
v 0.125 0.21650635 0.00
v 0 0.28867513 -0.00
vn 0 0 1
f 1//1 2//1 6//1
f 6//1 2//1 7//1
f 2//1 3//1 7//1
f 7//1 3//1 8//1
f 3//1 4//1 8//1
f 8//1 4//1 9//1
f 4//1 5//1 9//1
f 6//1 7//1 10//1
f 10//1 7//1 11//1
f 7//1 8//1 11//1
f 11//1 8//1 12//1
f 8//1 9//1 12//1
f 10//1 11//1 13//1
f 13//1 11//1 14//1
f 11//1 12//1 14//1
f 13//1 14//1 15//1
