  0
SECTION
  2
HEADER
  9
$ACADVER
  1
AC1009
  0
ENDSEC
  0
SECTION
  2
BLOCKS
  0
ENDSEC
  0
SECTION
  2
ENTITIES
  0
LINE
  8
CutLine
  6
CONTINUOUS
 62
8
 10
60.511093
 20
53.333333
 11
63.891145
 21
53.024713
  0
LINE
  8
CutLine
  6
CONTINUOUS
 62
8
 10
63.891145
 20
53.024713
 11
71.921931
 21
43.380052
  0
LINE
  8
CutLine
  6
CONTINUOUS
 62
8
 10
71.921931
 20
43.380052
 11
71.613311
 21
40.000000
  0
LINE
  8
CutLine
  6
CONTINUOUS
 62
8
 10
49.408874
 20
66.666664
 11
52.788927
 21
66.358045
  0
LINE
  8
CutLine
  6
CONTINUOUS
 62
8
 10
52.788927
 20
66.358045
 11
60.819712
 21
56.713385
  0
LINE
  8
CutLine
  6
CONTINUOUS
 62
8
 10
60.819712
 20
56.713385
 11
60.511093
 21
53.333333
  0
LINE
  8
CutLine
  6
CONTINUOUS
 62
8
 10
16.102218
 20
26.666667
 11
12.722166
 21
26.975287
  0
LINE
  8
CutLine
  6
CONTINUOUS
 62
8
 10
12.722166
 20
26.975287
 11
4.691381
 21
36.619948
  0
LINE
  8
CutLine
  6
CONTINUOUS
 62
8
 10
4.691381
 20
36.619948
 11
5.000000
 21
40.000000
  0
LINE
  8
CutLine
  6
CONTINUOUS
 62
8
 10
27.204437
 20
13.333336
 11
23.824385
 21
13.641955
  0
LINE
  8
CutLine
  6
CONTINUOUS
 62
8
 10
23.824385
 20
13.641955
 11
15.793599
 21
23.286615
  0
LINE
  8
CutLine
  6
CONTINUOUS
 62
8
 10
15.793599
 20
23.286615
 11
16.102218
 21
26.666667
  0
LINE
  8
CutLine
  6
CONTINUOUS
 62
8
 10
38.306656
 20
0.000000
 11
34.926603
 21
0.308620
  0
LINE
  8
CutLine
  6
CONTINUOUS
 62
8
 10
34.926603
 20
0.308620
 11
26.895817
 21
9.953284
  0
LINE
  8
CutLine
  6
CONTINUOUS
 62
8
 10
26.895817
 20
9.953284
 11
27.204437
 21
13.333336
  0
LINE
  8
CutLine
  6
CONTINUOUS
 62
8
 10
38.306656
 20
80.000000
 11
41.686708
 21
79.691380
  0
LINE
  8
CutLine
  6
CONTINUOUS
 62
8
 10
41.686708
 20
79.691380
 11
49.717494
 21
70.046716
  0
LINE
  8
CutLine
  6
CONTINUOUS
 62
8
 10
49.717494
 20
70.046716
 11
49.408874
 21
66.666664
  0
LINE
  8
MountainLine
  6
CONTINUOUS
 62
5
 10
60.511093
 20
31.111111
 11
60.511093
 21
26.666667
  0
LINE
  8
CutLine
  6
CONTINUOUS
 62
8
 10
60.511093
 20
26.666667
 11
71.613311
 21
40.000000
  0
LINE
  8
MountainLine
  6
CONTINUOUS
 62
5
 10
71.613311
 20
40.000000
 11
60.511093
 21
31.111111
  0
LINE
  8
MountainLine
  6
CONTINUOUS
 62
5
 10
60.511093
 20
31.111111
 11
49.408874
 21
13.333336
  0
LINE
  8
CutLine
  6
CONTINUOUS
 62
8
 10
49.408874
 20
13.333336
 11
60.511093
 21
26.666667
  0
LINE
  8
MountainLine
  6
CONTINUOUS
 62
5
 10
60.511093
 20
35.555556
 11
60.511093
 21
31.111111
  0
LINE
  8
MountainLine
  6
CONTINUOUS
 62
5
 10
71.613311
 20
40.000000
 11
60.511093
 21
35.555556
  0
LINE
  8
MountainLine
  6
CONTINUOUS
 62
5
 10
60.511093
 20
40.000000
 11
60.511093
 21
35.555556
  0
LINE
  8
MountainLine
  6
CONTINUOUS
 62
5
 10
71.613311
 20
40.000000
 11
60.511093
 21
40.000000
  0
LINE
  8
MountainLine
  6
CONTINUOUS
 62
5
 10
49.408874
 20
22.222222
 11
49.408874
 21
13.333336
  0
LINE
  8
MountainLine
  6
CONTINUOUS
 62
5
 10
60.511093
 20
31.111111
 11
49.408874
 21
22.222222
  0
LINE
  8
MountainLine
  6
CONTINUOUS
 62
5
 10
60.511093
 20
35.555556
 11
49.408874
 21
22.222222
  0
LINE
  8
MountainLine
  6
CONTINUOUS
 62
5
 10
49.408874
 20
31.111111
 11
49.408874
 21
22.222222
  0
LINE
  8
MountainLine
  6
CONTINUOUS
 62
5
 10
60.511093
 20
35.555556
 11
49.408874
 21
31.111111
  0
LINE
  8
MountainLine
  6
CONTINUOUS
 62
5
 10
60.511093
 20
40.000000
 11
49.408874
 21
31.111111
  0
LINE
  8
MountainLine
  6
CONTINUOUS
 62
5
 10
49.408874
 20
40.000000
 11
49.408874
 21
31.111111
  0
LINE
  8
MountainLine
  6
CONTINUOUS
 62
5
 10
60.511093
 20
40.000000
 11
49.408874
 21
40.000000
  0
LINE
  8
MountainLine
  6
CONTINUOUS
 62
5
 10
71.613311
 20
40.000000
 11
60.511093
 21
53.333333
  0
LINE
  8
MountainLine
  6
CONTINUOUS
 62
5
 10
60.511093
 20
53.333333
 11
60.511093
 21
48.888889
  0
LINE
  8
MountainLine
  6
CONTINUOUS
 62
5
 10
60.511093
 20
48.888889
 11
71.613311
 21
40.000000
  0
LINE
  8
MountainLine
  6
CONTINUOUS
 62
5
 10
60.511093
 20
53.333333
 11
49.408874
 21
66.666664
  0
LINE
  8
MountainLine
  6
CONTINUOUS
 62
5
 10
49.408874
 20
66.666664
 11
60.511093
 21
48.888889
  0
LINE
  8
MountainLine
  6
CONTINUOUS
 62
5
 10
60.511093
 20
48.888889
 11
60.511093
 21
44.444444
  0
LINE
  8
MountainLine
  6
CONTINUOUS
 62
5
 10
60.511093
 20
44.444444
 11
71.613311
 21
40.000000
  0
LINE
  8
MountainLine
  6
CONTINUOUS
 62
5
 10
60.511093
 20
44.444444
 11
60.511093
 21
40.000000
  0
LINE
  8
MountainLine
  6
CONTINUOUS
 62
5
 10
49.408874
 20
66.666664
 11
49.408874
 21
57.777778
  0
LINE
  8
MountainLine
  6
CONTINUOUS
 62
5
 10
49.408874
 20
57.777778
 11
60.511093
 21
48.888889
  0
LINE
  8
MountainLine
  6
CONTINUOUS
 62
5
 10
49.408874
 20
57.777778
 11
60.511093
 21
44.444444
  0
LINE
  8
MountainLine
  6
CONTINUOUS
 62
5
 10
49.408874
 20
57.777778
 11
49.408874
 21
48.888889
  0
LINE
  8
MountainLine
  6
CONTINUOUS
 62
5
 10
49.408874
 20
48.888889
 11
60.511093
 21
44.444444
  0
LINE
  8
MountainLine
  6
CONTINUOUS
 62
5
 10
49.408874
 20
48.888889
 11
60.511093
 21
40.000000
  0
LINE
  8
MountainLine
  6
CONTINUOUS
 62
5
 10
49.408874
 20
48.888889
 11
49.408874
 21
40.000000
  0
LINE
  8
MountainLine
  6
CONTINUOUS
 62
5
 10
5.000000
 20
40.000000
 11
16.102218
 21
26.666667
  0
LINE
  8
MountainLine
  6
CONTINUOUS
 62
5
 10
16.102218
 20
26.666667
 11
16.102218
 21
31.111111
  0
LINE
  8
MountainLine
  6
CONTINUOUS
 62
5
 10
16.102218
 20
31.111111
 11
5.000000
 21
40.000000
  0
LINE
  8
MountainLine
  6
CONTINUOUS
 62
5
 10
16.102218
 20
31.111111
 11
16.102218
 21
35.555556
  0
LINE
  8
MountainLine
  6
CONTINUOUS
 62
5
 10
16.102218
 20
35.555556
 11
5.000000
 21
40.000000
  0
LINE
  8
MountainLine
  6
CONTINUOUS
 62
5
 10
16.102218
 20
35.555556
 11
16.102218
 21
40.000000
  0
LINE
  8
MountainLine
  6
CONTINUOUS
 62
5
 10
16.102218
 20
40.000000
 11
5.000000
 21
40.000000
  0
LINE
  8
MountainLine
  6
CONTINUOUS
 62
5
 10
16.102218
 20
26.666667
 11
27.204437
 21
13.333336
  0
LINE
  8
MountainLine
  6
CONTINUOUS
 62
5
 10
27.204437
 20
13.333336
 11
16.102218
 21
31.111111
  0
LINE
  8
MountainLine
  6
CONTINUOUS
 62
5
 10
27.204437
 20
13.333336
 11
27.204437
 21
22.222222
  0
LINE
  8
MountainLine
  6
CONTINUOUS
 62
5
 10
27.204437
 20
22.222222
 11
16.102218
 21
31.111111
  0
LINE
  8
MountainLine
  6
CONTINUOUS
 62
5
 10
27.204437
 20
22.222222
 11
16.102218
 21
35.555556
  0
LINE
  8
MountainLine
  6
CONTINUOUS
 62
5
 10
27.204437
 20
22.222222
 11
27.204437
 21
31.111111
  0
LINE
  8
MountainLine
  6
CONTINUOUS
 62
5
 10
27.204437
 20
31.111111
 11
16.102218
 21
35.555556
  0
LINE
  8
MountainLine
  6
CONTINUOUS
 62
5
 10
27.204437
 20
31.111111
 11
16.102218
 21
40.000000
  0
LINE
  8
MountainLine
  6
CONTINUOUS
 62
5
 10
27.204437
 20
31.111111
 11
27.204437
 21
40.000000
  0
LINE
  8
MountainLine
  6
CONTINUOUS
 62
5
 10
27.204437
 20
40.000000
 11
16.102218
 21
40.000000
  0
LINE
  8
MountainLine
  6
CONTINUOUS
 62
5
 10
16.102218
 20
48.888889
 11
16.102218
 21
53.333333
  0
LINE
  8
CutLine
  6
CONTINUOUS
 62
8
 10
16.102218
 20
53.333333
 11
5.000000
 21
40.000000
  0
LINE
  8
MountainLine
  6
CONTINUOUS
 62
5
 10
5.000000
 20
40.000000
 11
16.102218
 21
48.888889
  0
LINE
  8
MountainLine
  6
CONTINUOUS
 62
5
 10
16.102218
 20
44.444444
 11
16.102218
 21
48.888889
  0
LINE
  8
MountainLine
  6
CONTINUOUS
 62
5
 10
5.000000
 20
40.000000
 11
16.102218
 21
44.444444
  0
LINE
  8
MountainLine
  6
CONTINUOUS
 62
5
 10
16.102218
 20
40.000000
 11
16.102218
 21
44.444444
  0
LINE
  8
MountainLine
  6
CONTINUOUS
 62
5
 10
16.102218
 20
48.888889
 11
27.204437
 21
66.666664
  0
LINE
  8
CutLine
  6
CONTINUOUS
 62
8
 10
27.204437
 20
66.666664
 11
16.102218
 21
53.333333
  0
LINE
  8
MountainLine
  6
CONTINUOUS
 62
5
 10
27.204437
 20
57.777778
 11
27.204437
 21
66.666664
  0
LINE
  8
MountainLine
  6
CONTINUOUS
 62
5
 10
16.102218
 20
48.888889
 11
27.204437
 21
57.777778
  0
LINE
  8
MountainLine
  6
CONTINUOUS
 62
5
 10
16.102218
 20
44.444444
 11
27.204437
 21
57.777778
  0
LINE
  8
MountainLine
  6
CONTINUOUS
 62
5
 10
27.204437
 20
48.888889
 11
27.204437
 21
57.777778
  0
LINE
  8
MountainLine
  6
CONTINUOUS
 62
5
 10
16.102218
 20
44.444444
 11
27.204437
 21
48.888889
  0
LINE
  8
MountainLine
  6
CONTINUOUS
 62
5
 10
16.102218
 20
40.000000
 11
27.204437
 21
48.888889
  0
LINE
  8
MountainLine
  6
CONTINUOUS
 62
5
 10
27.204437
 20
40.000000
 11
27.204437
 21
48.888889
  0
LINE
  8
MountainLine
  6
CONTINUOUS
 62
5
 10
27.204437
 20
13.333336
 11
38.306656
 21
0.000000
  0
LINE
  8
MountainLine
  6
CONTINUOUS
 62
5
 10
38.306656
 20
0.000000
 11
27.204437
 21
22.222222
  0
LINE
  8
ValleyLine
  6
CONTINUOUS
 62
1
 10
38.306656
 20
0.000000
 11
38.306656
 21
13.333333
  0
LINE
  8
MountainLine
  6
CONTINUOUS
 62
5
 10
38.306656
 20
13.333333
 11
27.204437
 21
22.222222
  0
LINE
  8
MountainLine
  6
CONTINUOUS
 62
5
 10
38.306656
 20
13.333333
 11
27.204437
 21
31.111111
  0
LINE
  8
ValleyLine
  6
CONTINUOUS
 62
1
 10
38.306656
 20
13.333333
 11
38.306656
 21
26.666666
  0
LINE
  8
MountainLine
  6
CONTINUOUS
 62
5
 10
38.306656
 20
26.666666
 11
27.204437
 21
31.111111
  0
LINE
  8
MountainLine
  6
CONTINUOUS
 62
5
 10
38.306656
 20
26.666666
 11
27.204437
 21
40.000000
  0
LINE
  8
ValleyLine
  6
CONTINUOUS
 62
1
 10
38.306656
 20
26.666666
 11
38.306656
 21
40.000000
  0
LINE
  8
MountainLine
  6
CONTINUOUS
 62
5
 10
38.306656
 20
40.000000
 11
27.204437
 21
40.000000
  0
LINE
  8
MountainLine
  6
CONTINUOUS
 62
5
 10
27.204437
 20
57.777778
 11
38.306656
 21
80.000000
  0
LINE
  8
CutLine
  6
CONTINUOUS
 62
8
 10
38.306656
 20
80.000000
 11
27.204437
 21
66.666664
  0
LINE
  8
ValleyLine
  6
CONTINUOUS
 62
1
 10
38.306656
 20
66.666667
 11
38.306656
 21
80.000000
  0
LINE
  8
MountainLine
  6
CONTINUOUS
 62
5
 10
27.204437
 20
57.777778
 11
38.306656
 21
66.666667
  0
LINE
  8
MountainLine
  6
CONTINUOUS
 62
5
 10
27.204437
 20
48.888889
 11
38.306656
 21
66.666667
  0
LINE
  8
ValleyLine
  6
CONTINUOUS
 62
1
 10
38.306656
 20
53.333334
 11
38.306656
 21
66.666667
  0
LINE
  8
MountainLine
  6
CONTINUOUS
 62
5
 10
27.204437
 20
48.888889
 11
38.306656
 21
53.333334
  0
LINE
  8
MountainLine
  6
CONTINUOUS
 62
5
 10
27.204437
 20
40.000000
 11
38.306656
 21
53.333334
  0
LINE
  8
ValleyLine
  6
CONTINUOUS
 62
1
 10
38.306656
 20
40.000000
 11
38.306656
 21
53.333334
  0
LINE
  8
MountainLine
  6
CONTINUOUS
 62
5
 10
49.408874
 20
22.222222
 11
38.306656
 21
0.000000
  0
LINE
  8
CutLine
  6
CONTINUOUS
 62
8
 10
38.306656
 20
0.000000
 11
49.408874
 21
13.333336
  0
LINE
  8
MountainLine
  6
CONTINUOUS
 62
5
 10
49.408874
 20
22.222222
 11
38.306656
 21
13.333333
  0
LINE
  8
MountainLine
  6
CONTINUOUS
 62
5
 10
49.408874
 20
31.111111
 11
38.306656
 21
13.333333
  0
LINE
  8
MountainLine
  6
CONTINUOUS
 62
5
 10
49.408874
 20
31.111111
 11
38.306656
 21
26.666666
  0
LINE
  8
MountainLine
  6
CONTINUOUS
 62
5
 10
49.408874
 20
40.000000
 11
38.306656
 21
26.666666
  0
LINE
  8
MountainLine
  6
CONTINUOUS
 62
5
 10
49.408874
 20
40.000000
 11
38.306656
 21
40.000000
  0
LINE
  8
MountainLine
  6
CONTINUOUS
 62
5
 10
49.408874
 20
66.666664
 11
38.306656
 21
80.000000
  0
LINE
  8
MountainLine
  6
CONTINUOUS
 62
5
 10
38.306656
 20
80.000000
 11
49.408874
 21
57.777778
  0
LINE
  8
MountainLine
  6
CONTINUOUS
 62
5
 10
38.306656
 20
66.666667
 11
49.408874
 21
57.777778
  0
LINE
  8
MountainLine
  6
CONTINUOUS
 62
5
 10
38.306656
 20
66.666667
 11
49.408874
 21
48.888889
  0
LINE
  8
MountainLine
  6
CONTINUOUS
 62
5
 10
38.306656
 20
53.333334
 11
49.408874
 21
48.888889
  0
LINE
  8
MountainLine
  6
CONTINUOUS
 62
5
 10
38.306656
 20
53.333334
 11
49.408874
 21
40.000000
  0
ENDSEC
  0
EOF
