  0
SECTION
  2
HEADER
  9
$ACADVER
  1
AC1009
  0
ENDSEC
  0
SECTION
  2
BLOCKS
  0
ENDSEC
  0
SECTION
  2
ENTITIES
  0
LINE
  8
CutLine
  6
CONTINUOUS
 62
8
 10
14.514360
 20
32.929710
 11
11.787979
 21
33.682602
  0
LINE
  8
CutLine
  6
CONTINUOUS
 62
8
 10
11.787979
 20
33.682602
 11
4.250210
 21
46.971744
  0
LINE
  8
CutLine
  6
CONTINUOUS
 62
8
 10
4.250210
 20
46.971744
 11
5.003103
 21
49.698124
  0
LINE
  8
CutLine
  6
CONTINUOUS
 62
8
 10
24.654205
 20
16.547030
 11
21.901018
 21
17.195072
  0
LINE
  8
CutLine
  6
CONTINUOUS
 62
8
 10
21.901018
 20
17.195072
 11
13.866318
 21
30.176522
  0
LINE
  8
CutLine
  6
CONTINUOUS
 62
8
 10
13.866318
 20
30.176522
 11
14.514360
 21
32.929710
  0
LINE
  8
CutLine
  6
CONTINUOUS
 62
8
 10
34.495131
 20
0.000000
 11
31.753841
 21
0.696658
  0
LINE
  8
CutLine
  6
CONTINUOUS
 62
8
 10
31.753841
 20
0.696658
 11
23.957548
 21
13.805741
  0
LINE
  8
CutLine
  6
CONTINUOUS
 62
8
 10
23.957548
 20
13.805741
 11
24.654205
 21
16.547030
  0
LINE
  8
CutLine
  6
CONTINUOUS
 62
8
 10
53.577920
 20
67.147182
 11
56.296978
 21
66.368257
  0
LINE
  8
CutLine
  6
CONTINUOUS
 62
8
 10
56.296978
 20
66.368257
 11
63.696743
 21
53.026778
  0
LINE
  8
CutLine
  6
CONTINUOUS
 62
8
 10
63.696743
 20
53.026778
 11
62.917818
 21
50.307720
  0
LINE
  8
CutLine
  6
CONTINUOUS
 62
8
 10
43.650977
 20
83.659736
 11
46.395546
 21
82.976112
  0
LINE
  8
CutLine
  6
CONTINUOUS
 62
8
 10
46.395546
 20
82.976112
 11
54.261544
 21
69.891751
  0
LINE
  8
CutLine
  6
CONTINUOUS
 62
8
 10
54.261544
 20
69.891751
 11
53.577920
 21
67.147182
  0
LINE
  8
CutLine
  6
CONTINUOUS
 62
8
 10
34.025056
 20
100.332758
 11
36.757099
 21
99.600676
  0
LINE
  8
CutLine
  6
CONTINUOUS
 62
8
 10
36.757099
 20
99.600676
 11
44.383059
 21
86.391778
  0
LINE
  8
CutLine
  6
CONTINUOUS
 62
8
 10
44.383059
 20
86.391778
 11
43.650977
 21
83.659736
  0
LINE
  8
MountainLine
  6
CONTINUOUS
 62
5
 10
53.353810
 20
39.096544
 11
53.736184
 21
33.367332
  0
LINE
  8
CutLine
  6
CONTINUOUS
 62
8
 10
53.736184
 20
33.367332
 11
62.917884
 21
50.293570
  0
LINE
  8
ValleyLine
  6
CONTINUOUS
 62
1
 10
62.917884
 20
50.293570
 11
53.353810
 21
39.096544
  0
LINE
  8
ValleyLine
  6
CONTINUOUS
 62
1
 10
53.353810
 20
39.096544
 11
43.964401
 21
16.762486
  0
LINE
  8
CutLine
  6
CONTINUOUS
 62
8
 10
43.964401
 20
16.762486
 11
53.736184
 21
33.367332
  0
LINE
  8
MountainLine
  6
CONTINUOUS
 62
5
 10
5.003103
 20
49.698124
 11
14.514360
 21
32.929710
  0
LINE
  8
MountainLine
  6
CONTINUOUS
 62
5
 10
14.514360
 20
32.929710
 11
14.796112
 21
38.700797
  0
LINE
  8
ValleyLine
  6
CONTINUOUS
 62
1
 10
14.796112
 20
38.700797
 11
5.003103
 21
49.698124
  0
LINE
  8
MountainLine
  6
CONTINUOUS
 62
5
 10
14.514360
 20
32.929710
 11
24.654205
 21
16.547030
  0
LINE
  8
ValleyLine
  6
CONTINUOUS
 62
1
 10
24.654205
 20
16.547030
 11
14.768806
 21
38.666027
  0
LINE
  8
ValleyLine
  6
CONTINUOUS
 62
1
 10
44.036373
 20
27.764824
 11
43.964401
 21
16.762486
  0
LINE
  8
ValleyLine
  6
CONTINUOUS
 62
1
 10
53.353810
 20
39.096544
 11
44.036373
 21
27.764824
  0
LINE
  8
MountainLine
  6
CONTINUOUS
 62
5
 10
44.036373
 20
27.764824
 11
34.495131
 21
0.000000
  0
LINE
  8
CutLine
  6
CONTINUOUS
 62
8
 10
34.495131
 20
0.000000
 11
43.964401
 21
16.762486
  0
LINE
  8
ValleyLine
  6
CONTINUOUS
 62
1
 10
34.302321
 20
16.719978
 11
34.495131
 21
0.000000
  0
LINE
  8
ValleyLine
  6
CONTINUOUS
 62
1
 10
44.034659
 20
27.765817
 11
34.302321
 21
16.719978
  0
LINE
  8
ValleyLine
  6
CONTINUOUS
 62
1
 10
24.654205
 20
16.547030
 11
24.345316
 21
27.563715
  0
LINE
  8
ValleyLine
  6
CONTINUOUS
 62
1
 10
24.345316
 20
27.563715
 11
14.796112
 21
38.700797
  0
LINE
  8
MountainLine
  6
CONTINUOUS
 62
5
 10
24.654205
 20
16.547030
 11
34.495131
 21
0.000000
  0
LINE
  8
MountainLine
  6
CONTINUOUS
 62
5
 10
34.495131
 20
0.000000
 11
24.336762
 21
27.545023
  0
LINE
  8
ValleyLine
  6
CONTINUOUS
 62
1
 10
34.302321
 20
16.719978
 11
24.345316
 21
27.563715
  0
LINE
  8
MountainLine
  6
CONTINUOUS
 62
5
 10
62.917818
 20
50.307720
 11
53.577920
 21
67.147182
  0
LINE
  8
MountainLine
  6
CONTINUOUS
 62
5
 10
53.577920
 20
67.147182
 11
53.249246
 21
61.414639
  0
LINE
  8
ValleyLine
  6
CONTINUOUS
 62
1
 10
53.249246
 20
61.414639
 11
62.917818
 21
50.307720
  0
LINE
  8
MountainLine
  6
CONTINUOUS
 62
5
 10
53.577920
 20
67.147182
 11
43.650977
 21
83.659736
  0
LINE
  8
ValleyLine
  6
CONTINUOUS
 62
1
 10
43.650977
 20
83.659736
 11
53.249246
 21
61.414639
  0
LINE
  8
MountainLine
  6
CONTINUOUS
 62
5
 10
14.689533
 20
61.449078
 11
14.353717
 21
67.217272
  0
LINE
  8
CutLine
  6
CONTINUOUS
 62
8
 10
14.353717
 20
67.217272
 11
5.000000
 21
50.360472
  0
LINE
  8
ValleyLine
  6
CONTINUOUS
 62
1
 10
5.000000
 20
50.360472
 11
14.689533
 21
61.449078
  0
LINE
  8
ValleyLine
  6
CONTINUOUS
 62
1
 10
14.661902
 20
61.483591
 11
24.339610
 21
83.694244
  0
LINE
  8
CutLine
  6
CONTINUOUS
 62
8
 10
24.339610
 20
83.694244
 11
14.353717
 21
67.217272
  0
LINE
  8
ValleyLine
  6
CONTINUOUS
 62
1
 10
43.650977
 20
83.659736
 11
43.826039
 21
72.658556
  0
LINE
  8
ValleyLine
  6
CONTINUOUS
 62
1
 10
43.826039
 20
72.658556
 11
53.249246
 21
61.414639
  0
LINE
  8
MountainLine
  6
CONTINUOUS
 62
5
 10
43.650977
 20
83.659736
 11
34.025056
 21
100.332758
  0
LINE
  8
MountainLine
  6
CONTINUOUS
 62
5
 10
34.025056
 20
100.332758
 11
43.826039
 21
72.658556
  0
LINE
  8
ValleyLine
  6
CONTINUOUS
 62
1
 10
34.025056
 20
100.332758
 11
33.988923
 21
83.611707
  0
LINE
  8
ValleyLine
  6
CONTINUOUS
 62
1
 10
33.988923
 20
83.611707
 11
43.824334
 21
72.657546
  0
LINE
  8
ValleyLine
  6
CONTINUOUS
 62
1
 10
24.133962
 20
72.675148
 11
24.339610
 21
83.694244
  0
LINE
  8
ValleyLine
  6
CONTINUOUS
 62
1
 10
14.689533
 20
61.449078
 11
24.133962
 21
72.675148
  0
LINE
  8
MountainLine
  6
CONTINUOUS
 62
5
 10
24.125233
 20
72.693760
 11
34.025056
 21
100.332758
  0
LINE
  8
CutLine
  6
CONTINUOUS
 62
8
 10
34.025056
 20
100.332758
 11
24.339610
 21
83.694244
  0
LINE
  8
ValleyLine
  6
CONTINUOUS
 62
1
 10
24.133962
 20
72.675148
 11
33.988923
 21
83.611707
  0
LINE
  8
MountainLine
  6
CONTINUOUS
 62
5
 10
43.615535
 20
38.456650
 11
44.034659
 21
27.765817
  0
LINE
  8
MountainLine
  6
CONTINUOUS
 62
5
 10
44.034659
 20
27.765817
 11
53.660677
 21
44.378170
  0
LINE
  8
MountainLine
  6
CONTINUOUS
 62
5
 10
53.660677
 20
44.378170
 11
43.615535
 21
38.456650
  0
LINE
  8
ValleyLine
  6
CONTINUOUS
 62
1
 10
43.611275
 20
50.210191
 11
43.615535
 21
38.456650
  0
LINE
  8
MountainLine
  6
CONTINUOUS
 62
5
 10
43.615535
 20
38.456650
 11
53.271253
 21
50.255199
  0
LINE
  8
ValleyLine
  6
CONTINUOUS
 62
1
 10
53.271253
 20
50.255199
 11
43.611275
 21
50.210191
  0
LINE
  8
MountainLine
  6
CONTINUOUS
 62
5
 10
43.615535
 20
38.456650
 11
34.302321
 21
16.719978
  0
LINE
  8
ValleyLine
  6
CONTINUOUS
 62
1
 10
14.796112
 20
38.700797
 11
14.416541
 21
44.010432
  0
LINE
  8
ValleyLine
  6
CONTINUOUS
 62
1
 10
14.416541
 20
44.010432
 11
5.027167
 21
49.725220
  0
LINE
  8
ValleyLine
  6
CONTINUOUS
 62
1
 10
14.416541
 20
44.010432
 11
14.694616
 21
50.074712
  0
LINE
  8
MountainLine
  6
CONTINUOUS
 62
5
 10
14.694616
 20
50.074712
 11
5.037901
 21
50.015977
  0
LINE
  8
MountainLine
  6
CONTINUOUS
 62
5
 10
24.345316
 20
27.563715
 11
14.416541
 21
44.010432
  0
LINE
  8
MountainLine
  6
CONTINUOUS
 62
5
 10
24.353870
 20
27.582408
 11
24.570885
 21
38.278192
  0
LINE
  8
MountainLine
  6
CONTINUOUS
 62
5
 10
24.570885
 20
38.278192
 11
14.416541
 21
44.010432
  0
LINE
  8
MountainLine
  6
CONTINUOUS
 62
5
 10
14.695068
 20
50.074587
 11
24.570885
 21
38.278192
  0
LINE
  8
ValleyLine
  6
CONTINUOUS
 62
1
 10
24.570885
 20
38.278192
 11
24.354467
 21
50.119970
  0
LINE
  8
ValleyLine
  6
CONTINUOUS
 62
1
 10
24.354467
 20
50.119970
 11
14.695068
 21
50.074587
  0
LINE
  8
MountainLine
  6
CONTINUOUS
 62
5
 10
34.302321
 20
16.719978
 11
24.570885
 21
38.278192
  0
LINE
  8
MountainLine
  6
CONTINUOUS
 62
5
 10
34.139302
 20
33.448562
 11
34.296010
 21
16.725021
  0
LINE
  8
MountainLine
  6
CONTINUOUS
 62
5
 10
43.615535
 20
38.456650
 11
34.139302
 21
33.448562
  0
LINE
  8
MountainLine
  6
CONTINUOUS
 62
5
 10
34.139302
 20
33.448562
 11
24.570885
 21
38.278192
  0
LINE
  8
MountainLine
  6
CONTINUOUS
 62
5
 10
34.139302
 20
33.448562
 11
24.354889
 21
50.029749
  0
LINE
  8
ValleyLine
  6
CONTINUOUS
 62
1
 10
34.139302
 20
33.448562
 11
33.983539
 21
50.165080
  0
LINE
  8
ValleyLine
  6
CONTINUOUS
 62
1
 10
33.983539
 20
50.165080
 11
24.354467
 21
50.119970
  0
LINE
  8
MountainLine
  6
CONTINUOUS
 62
5
 10
43.611275
 20
50.210191
 11
34.139302
 21
33.448562
  0
LINE
  8
ValleyLine
  6
CONTINUOUS
 62
1
 10
43.611275
 20
50.210191
 11
33.982011
 21
50.165080
  0
LINE
  8
ValleyLine
  6
CONTINUOUS
 62
1
 10
53.660677
 20
44.378170
 11
53.353810
 21
39.096544
  0
LINE
  8
ValleyLine
  6
CONTINUOUS
 62
1
 10
62.917884
 20
50.293570
 11
53.660677
 21
44.378170
  0
LINE
  8
ValleyLine
  6
CONTINUOUS
 62
1
 10
53.271555
 20
50.255451
 11
53.660677
 21
44.378170
  0
LINE
  8
MountainLine
  6
CONTINUOUS
 62
5
 10
62.916714
 20
50.300640
 11
53.271555
 21
50.255451
  0
LINE
  8
MountainLine
  6
CONTINUOUS
 62
5
 10
53.605589
 20
56.136120
 11
43.824334
 21
72.657546
  0
LINE
  8
MountainLine
  6
CONTINUOUS
 62
5
 10
43.824334
 20
72.657546
 11
43.505403
 21
61.963256
  0
LINE
  8
MountainLine
  6
CONTINUOUS
 62
5
 10
43.505403
 20
61.963256
 11
53.605589
 21
56.136120
  0
LINE
  8
MountainLine
  6
CONTINUOUS
 62
5
 10
53.271251
 20
50.255700
 11
43.505403
 21
61.963256
  0
LINE
  8
ValleyLine
  6
CONTINUOUS
 62
1
 10
43.505403
 20
61.963256
 11
43.611275
 21
50.210191
  0
LINE
  8
MountainLine
  6
CONTINUOUS
 62
5
 10
33.988923
 20
83.611707
 11
43.505403
 21
61.963256
  0
LINE
  8
ValleyLine
  6
CONTINUOUS
 62
1
 10
14.359730
 20
56.136120
 11
14.689533
 21
61.449078
  0
LINE
  8
ValleyLine
  6
CONTINUOUS
 62
1
 10
5.018950
 20
50.188225
 11
14.359730
 21
56.136120
  0
LINE
  8
ValleyLine
  6
CONTINUOUS
 62
1
 10
14.694616
 20
50.074712
 11
14.359730
 21
56.136120
  0
LINE
  8
MountainLine
  6
CONTINUOUS
 62
5
 10
14.359730
 20
56.136120
 11
24.133962
 21
72.675148
  0
LINE
  8
MountainLine
  6
CONTINUOUS
 62
5
 10
24.459917
 20
61.963256
 11
24.142691
 21
72.656537
  0
LINE
  8
MountainLine
  6
CONTINUOUS
 62
5
 10
14.359730
 20
56.136120
 11
24.459917
 21
61.963256
  0
LINE
  8
ValleyLine
  6
CONTINUOUS
 62
1
 10
24.354467
 20
50.119970
 11
24.459917
 21
61.963256
  0
LINE
  8
MountainLine
  6
CONTINUOUS
 62
5
 10
24.459917
 20
61.963256
 11
14.694417
 21
50.165270
  0
LINE
  8
MountainLine
  6
CONTINUOUS
 62
5
 10
24.459917
 20
61.963256
 11
33.988923
 21
83.611707
  0
LINE
  8
MountainLine
  6
CONTINUOUS
 62
5
 10
33.982660
 20
83.606605
 11
33.982660
 21
66.882330
  0
LINE
  8
MountainLine
  6
CONTINUOUS
 62
5
 10
33.982660
 20
66.882330
 11
43.505403
 21
61.963256
  0
LINE
  8
MountainLine
  6
CONTINUOUS
 62
5
 10
24.459917
 20
61.963256
 11
33.982660
 21
66.882330
  0
LINE
  8
MountainLine
  6
CONTINUOUS
 62
5
 10
24.354044
 20
50.210191
 11
33.982660
 21
66.882330
  0
LINE
  8
ValleyLine
  6
CONTINUOUS
 62
1
 10
33.982775
 20
50.165080
 11
33.982660
 21
66.882330
  0
LINE
  8
MountainLine
  6
CONTINUOUS
 62
5
 10
33.982660
 20
66.882330
 11
43.611275
 21
50.210191
  0
LINE
  8
ValleyLine
  6
CONTINUOUS
 62
1
 10
53.249246
 20
61.414639
 11
53.605589
 21
56.136120
  0
LINE
  8
ValleyLine
  6
CONTINUOUS
 62
1
 10
53.605589
 20
56.136120
 11
62.917818
 21
50.307720
  0
LINE
  8
ValleyLine
  6
CONTINUOUS
 62
1
 10
53.605589
 20
56.136120
 11
53.271555
 21
50.255451
  0
ENDSEC
  0
EOF
