# Test Code
v 0 0 0
v 0.5 0 0
v 0.25 0.11547005 0.3
v 0 0.28867513 -0
v 0 -0 0
v 0.5 -0 0
v 0.25 -0.11547005 0.3
v 0 -0.28867513 -0
v -0 0 0
v -0.5 0 0
v -0.25 0.11547005 0.3
v -0 0.28867513 -0
v -0 -0 0
v -0.5 -0 0
v -0.25 -0.11547005 0.3
v -0 -0.28867513 -0
vn 0 0 1
vn -1 0 0
vn 1 0 0
vn 0 -1 0
vn 0 1 0
vn 0 0 1
f 1//1 2//1 3//1 
f 1//1 3//1 4//1 
f 4//1 3//1 2//1 
f 7//1 6//1 5//1 
f 8//1 7//1 5//1 
f 6//1 7//1 8//1 
f 11//1 10//1 9//1 
f 12//1 11//1 9//1 
f 10//1 11//1 12//1 
f 13//1 14//1 15//1 
f 13//1 15//1 16//1 
f 16//1 15//1 14//1 
