# Test Code
v 0 0 9.905066779461168E-06
v 0.083333336 0 0.0035098460382913406
v 0.16666667 0 -0.0014622609748066993
v 0.25 0 0.0037206061782637475
v 0.33333334 0 -0.0005902679488484036
v 0.4166667 0 0.003819851350652431
v 0.5 0 0.00028645467417945424
v 0 0.28867513 0.00070588309568088
v 0 -0.28867513 0.00070588309568088
vn 0 0 1
vn -1 0 0
vn 1 0 0
vn 0 -1 0
vn 0 1 0
vn 0 0 1
f 1//1 2//1 8//1 
f 2//1 3//1 8//1 
f 3//1 4//1 8//1 
f 4//1 5//1 8//1 
f 5//1 6//1 8//1 
f 6//1 7//1 8//1 
f 9//1 2//1 1//1 
f 9//1 3//1 2//1 
f 9//1 4//1 3//1 
f 9//1 5//1 4//1 
f 9//1 6//1 5//1 
f 9//1 7//1 6//1 
