# Test Code
v 0 0 -0.00982046411679144
v 0.083333336 0 0.03937987081423389
v 0.16666667 0 0.015881330342994972
v 0.25 0 0.02617769543311807
v 0.33333334 0 0.014285656402394827
v 0.4166667 0 0.01894799469379432
v 0.5 0 0.023596039617760953
v 0 0.28867513 0.0285522311753791
# 9
v -0.083333336 0 0.03937987081423389
v -0.16666667 0 0.015881330342994972
v -0.25 0 0.02617769543311807
v -0.33333334 0 0.014285656402394827
v -0.4166667 0 0.01894799469379432
v -0.5 0 0.023596039617760953
#15
v 0 -0.28867513 0.0285522311753791

vn 0 0 1
vn -1 0 0
vn 1 0 0
vn 0 -1 0
vn 0 1 0
vn 0 0 1
f 1//1 2//1 8//1 
f 2//1 3//1 8//1 
f 3//1 4//1 8//1 
f 4//1 5//1 8//1 
f 5//1 6//1 8//1 
f 6//1 7//1 8//1 
f 9//1 1//1 8//1 
f 10//1 9//1 8//1
f 11//1 10//1 8//1
f 12//1 11//1 8//1
f 13//1 12//1 8//1
f 14//1 13//1 8//1
f 1//1 15//1 2//1  
f 2//1 15//1 3//1
f 3//1 15//1 4//1  
f 4//1 15//1 5//1 
f 5//1 15//1 6//1  
f 6//1 15//1 7//1  
f 9//1 15//1 1//1 
f 10//1 15//1 9//1
f 11//1 15//1 10//1 
f 12//1 15//1 11//1 
f 13//1 15//1 12//1 
f 14//1 15//1 13//1 