# Test Code
v 0 0 -0.008374395436303476
v 0.16666667 0 0.0043953398308356284
v 0.33333334 0 -0.005703424364019987
v 0.5 0 0.009206011941148928
v 0 0.096225046 -0.00772123497751357
v 0.11110978842428765 0.09585029002707901 0.002792356338173569
v 0.22235348602268945 0.09637497892160458 -0.006993089584093838
v 0.3333333 0.096225046 0.00917116675990659
v 0 0.19245009 -0.005626687890831605
v 0.05591179592739201 0.19162558135039404 0.0002553852795550908
v 0.11078535152772893 0.19201438216746639 -0.006940310149833813
v 0.16666666 0.19245009 0.012473904647576067
v 0 0.28867513 -0.0029848544595747198
v 0 -0 -0.008374395436303476
v 0.16666667 -0 0.0043953398308356284
v 0.33333334 -0 -0.005703424364019987
v 0.5 -0 0.009206011941148928
v 0 -0.096225046 -0.00772123497751357
v 0.11110978842428765 -0.09585029002707901 0.002792356338173569
v 0.22235348602268945 -0.09637497892160458 -0.006993089584093838
v 0.3333333 -0.096225046 0.00917116675990659
v 0 -0.19245009 -0.005626687890831605
v 0.05591179592739201 -0.19162558135039404 0.0002553852795550908
v 0.11078535152772893 -0.19201438216746639 -0.006940310149833813
v 0.16666666 -0.19245009 0.012473904647576067
v 0 -0.28867513 -0.0029848544595747198
v -0 0 -0.008374395436303476
v -0.16666667 0 0.0043953398308356284
v -0.33333334 0 -0.005703424364019987
v -0.5 0 0.009206011941148928
v -0 0.096225046 -0.00772123497751357
v -0.11110978842428765 0.09585029002707901 0.002792356338173569
v -0.22235348602268945 0.09637497892160458 -0.006993089584093838
v -0.3333333 0.096225046 0.00917116675990659
v -0 0.19245009 -0.005626687890831605
v -0.05591179592739201 0.19162558135039404 0.0002553852795550908
v -0.11078535152772893 0.19201438216746639 -0.006940310149833813
v -0.16666666 0.19245009 0.012473904647576067
v -0 0.28867513 -0.0029848544595747198
v -0 -0 -0.008374395436303476
v -0.16666667 -0 0.0043953398308356284
v -0.33333334 -0 -0.005703424364019987
v -0.5 -0 0.009206011941148928
v -0 -0.096225046 -0.00772123497751357
v -0.11110978842428765 -0.09585029002707901 0.002792356338173569
v -0.22235348602268945 -0.09637497892160458 -0.006993089584093838
v -0.3333333 -0.096225046 0.00917116675990659
v -0 -0.19245009 -0.005626687890831605
v -0.05591179592739201 -0.19162558135039404 0.0002553852795550908
v -0.11078535152772893 -0.19201438216746639 -0.006940310149833813
v -0.16666666 -0.19245009 0.012473904647576067
v -0 -0.28867513 -0.0029848544595747198
vn 0 0 1
vn -1 0 0
vn 1 0 0
vn 0 -1 0
vn 0 1 0
vn 0 0 1
f 1//1 2//1 5//1 
f 5//1 2//1 6//1 
f 2//1 3//1 6//1 
f 6//1 3//1 7//1 
f 3//1 4//1 7//1 
f 7//1 4//1 8//1 
f 5//1 6//1 9//1 
f 9//1 6//1 10//1 
f 6//1 7//1 10//1 
f 10//1 7//1 11//1 
f 7//1 8//1 11//1 
f 11//1 8//1 12//1 
f 9//1 10//1 13//1 
f 10//1 11//1 13//1 
f 11//1 12//1 13//1 
f 18//1 15//1 14//1 
f 19//1 15//1 18//1 
f 19//1 16//1 15//1 
f 20//1 16//1 19//1 
f 20//1 17//1 16//1 
f 21//1 17//1 20//1 
f 22//1 19//1 18//1 
f 23//1 19//1 22//1 
f 23//1 20//1 19//1 
f 24//1 20//1 23//1 
f 24//1 21//1 20//1 
f 25//1 21//1 24//1 
f 26//1 23//1 22//1 
f 26//1 24//1 23//1 
f 26//1 25//1 24//1 
f 31//1 28//1 27//1 
f 32//1 28//1 31//1 
f 32//1 29//1 28//1 
f 33//1 29//1 32//1 
f 33//1 30//1 29//1 
f 34//1 30//1 33//1 
f 35//1 32//1 31//1 
f 36//1 32//1 35//1 
f 36//1 33//1 32//1 
f 37//1 33//1 36//1 
f 37//1 34//1 33//1 
f 38//1 34//1 37//1 
f 39//1 36//1 35//1 
f 39//1 37//1 36//1 
f 39//1 38//1 37//1 
f 40//1 41//1 44//1 
f 44//1 41//1 45//1 
f 41//1 42//1 45//1 
f 45//1 42//1 46//1 
f 42//1 43//1 46//1 
f 46//1 43//1 47//1 
f 44//1 45//1 48//1 
f 48//1 45//1 49//1 
f 45//1 46//1 49//1 
f 49//1 46//1 50//1 
f 46//1 47//1 50//1 
f 50//1 47//1 51//1 
f 48//1 49//1 52//1 
f 49//1 50//1 52//1 
f 50//1 51//1 52//1 
