# Test Code
v 0 0 -0.023950699099575277
v 0.125 0 -0.02398359412443983
v 0.25 0 -0.0396998939366979
v 0.375 0 -0.0058569641827980225
v 0.5 0 0.0004390881768142595
v 0 0.07216878 -0.045979584274523255
v 0.1517024420181637 0.07195872326924523 -0.043841860702202334
v 0.25698162090169846 0.07871797559645084 -0.029470184840464812
v 0.375 0.07216878 -0.007838552640914044
v 0 0.14433756 -0.03255893833031193
v 0.1289097585232214 0.1540393438770553 -0.029217955826335275
v 0.25 0.14433756 0.0016502430492399932
v 0 0.21650635 -0.010354510181124708
v 0.125 0.21650635 -0.012084658281276068
v 0 0.28867513 0.005618417620158755
v 0 -0 -0.023950699099575277
v 0.125 -0 -0.02398359412443983
v 0.25 -0 -0.0396998939366979
v 0.375 -0 -0.0058569641827980225
v 0.5 -0 0.0004390881768142595
v 0 -0.07216878 -0.045979584274523255
v 0.1517024420181637 -0.07195872326924523 -0.043841860702202334
v 0.25698162090169846 -0.07871797559645084 -0.029470184840464812
v 0.375 -0.07216878 -0.007838552640914044
v 0 -0.14433756 -0.03255893833031193
v 0.1289097585232214 -0.1540393438770553 -0.029217955826335275
v 0.25 -0.14433756 0.0016502430492399932
v 0 -0.21650635 -0.010354510181124708
v 0.125 -0.21650635 -0.012084658281276068
v 0 -0.28867513 0.005618417620158755
v -0 0 -0.023950699099575277
v -0.125 0 -0.02398359412443983
v -0.25 0 -0.0396998939366979
v -0.375 0 -0.0058569641827980225
v -0.5 0 0.0004390881768142595
v -0 0.07216878 -0.045979584274523255
v -0.1517024420181637 0.07195872326924523 -0.043841860702202334
v -0.25698162090169846 0.07871797559645084 -0.029470184840464812
v -0.375 0.07216878 -0.007838552640914044
v -0 0.14433756 -0.03255893833031193
v -0.1289097585232214 0.1540393438770553 -0.029217955826335275
v -0.25 0.14433756 0.0016502430492399932
v -0 0.21650635 -0.010354510181124708
v -0.125 0.21650635 -0.012084658281276068
v -0 0.28867513 0.005618417620158755
v -0 -0 -0.023950699099575277
v -0.125 -0 -0.02398359412443983
v -0.25 -0 -0.0396998939366979
v -0.375 -0 -0.0058569641827980225
v -0.5 -0 0.0004390881768142595
v -0 -0.07216878 -0.045979584274523255
v -0.1517024420181637 -0.07195872326924523 -0.043841860702202334
v -0.25698162090169846 -0.07871797559645084 -0.029470184840464812
v -0.375 -0.07216878 -0.007838552640914044
v -0 -0.14433756 -0.03255893833031193
v -0.1289097585232214 -0.1540393438770553 -0.029217955826335275
v -0.25 -0.14433756 0.0016502430492399932
v -0 -0.21650635 -0.010354510181124708
v -0.125 -0.21650635 -0.012084658281276068
v -0 -0.28867513 0.005618417620158755
vn 0 0 1
vn -1 0 0
vn 1 0 0
vn 0 -1 0
vn 0 1 0
vn 0 0 1
f 1//1 2//1 6//1 
f 6//1 2//1 7//1 
f 2//1 3//1 7//1 
f 7//1 3//1 8//1 
f 3//1 4//1 8//1 
f 8//1 4//1 9//1 
f 4//1 5//1 9//1 
f 6//1 7//1 10//1 
f 10//1 7//1 11//1 
f 7//1 8//1 11//1 
f 11//1 8//1 12//1 
f 8//1 9//1 12//1 
f 10//1 11//1 13//1 
f 13//1 11//1 14//1 
f 11//1 12//1 14//1 
f 13//1 14//1 15//1 
f 21//1 17//1 16//1 
f 22//1 17//1 21//1 
f 22//1 18//1 17//1 
f 23//1 18//1 22//1 
f 23//1 19//1 18//1 
f 24//1 19//1 23//1 
f 24//1 20//1 19//1 
f 25//1 22//1 21//1 
f 26//1 22//1 25//1 
f 26//1 23//1 22//1 
f 27//1 23//1 26//1 
f 27//1 24//1 23//1 
f 28//1 26//1 25//1 
f 29//1 26//1 28//1 
f 29//1 27//1 26//1 
f 30//1 29//1 28//1 
f 36//1 32//1 31//1 
f 37//1 32//1 36//1 
f 37//1 33//1 32//1 
f 38//1 33//1 37//1 
f 38//1 34//1 33//1 
f 39//1 34//1 38//1 
f 39//1 35//1 34//1 
f 40//1 37//1 36//1 
f 41//1 37//1 40//1 
f 41//1 38//1 37//1 
f 42//1 38//1 41//1 
f 42//1 39//1 38//1 
f 43//1 41//1 40//1 
f 44//1 41//1 43//1 
f 44//1 42//1 41//1 
f 45//1 44//1 43//1 
f 46//1 47//1 51//1 
f 51//1 47//1 52//1 
f 47//1 48//1 52//1 
f 52//1 48//1 53//1 
f 48//1 49//1 53//1 
f 53//1 49//1 54//1 
f 49//1 50//1 54//1 
f 51//1 52//1 55//1 
f 55//1 52//1 56//1 
f 52//1 53//1 56//1 
f 56//1 53//1 57//1 
f 53//1 54//1 57//1 
f 55//1 56//1 58//1 
f 58//1 56//1 59//1 
f 56//1 57//1 59//1 
f 58//1 59//1 60//1 
