# Test Code
v 0 0 -0.015353768682655821
v 0.1 0 -0.001973133594756702
v 0.2 0 -0.01639684677988568
v 0.3 0 0.020920050798915728
v 0.4 0 0.03567590858467881
v 0.5 0 0.05271337083840964
v 0 0.057735026 -0.015195858690935708
v 0.09900059077138644 0.05477675969754204 -0.002314302509389734
v 0.16318340681363264 0.06495417947241144 -0.019653913731819593
v 0.29442548487490694 0.060225753280165335 0.018402187629685277
v 0.4 0.057735026 0.03256701669193689
v 0 0.11547005 -0.0140631488054393
v 0.09343639699118472 0.12037699684116407 -0.004480506189744166
v 0.2330816071820488 0.12437366445173567 -0.017265234919740212
v 0.3 0.11547005 0.01419216738549011
v 0 0.17320508 -0.012209121089686996
v 0.10667639424990334 0.17817893347842484 -0.027198259904809202
v 0.2 0.17320508 -0.028192090069130153
v 0 0.2309401 -0.032093635302164226
v 0.1 0.2309401 -0.023762968745209063
v 0 0.28867513 -0.022899160581274874
v 0 -0 -0.015353768682655821
v 0.1 -0 -0.001973133594756702
v 0.2 -0 -0.01639684677988568
v 0.3 -0 0.020920050798915728
v 0.4 -0 0.03567590858467881
v 0.5 -0 0.05271337083840964
v 0 -0.057735026 -0.015195858690935708
v 0.09900059077138644 -0.05477675969754204 -0.002314302509389734
v 0.16318340681363264 -0.06495417947241144 -0.019653913731819593
v 0.29442548487490694 -0.060225753280165335 0.018402187629685277
v 0.4 -0.057735026 0.03256701669193689
v 0 -0.11547005 -0.0140631488054393
v 0.09343639699118472 -0.12037699684116407 -0.004480506189744166
v 0.2330816071820488 -0.12437366445173567 -0.017265234919740212
v 0.3 -0.11547005 0.01419216738549011
v 0 -0.17320508 -0.012209121089686996
v 0.10667639424990334 -0.17817893347842484 -0.027198259904809202
v 0.2 -0.17320508 -0.028192090069130153
v 0 -0.2309401 -0.032093635302164226
v 0.1 -0.2309401 -0.023762968745209063
v 0 -0.28867513 -0.022899160581274874
v -0 0 -0.015353768682655821
v -0.1 0 -0.001973133594756702
v -0.2 0 -0.01639684677988568
v -0.3 0 0.020920050798915728
v -0.4 0 0.03567590858467881
v -0.5 0 0.05271337083840964
v -0 0.057735026 -0.015195858690935708
v -0.09900059077138644 0.05477675969754204 -0.002314302509389734
v -0.16318340681363264 0.06495417947241144 -0.019653913731819593
v -0.29442548487490694 0.060225753280165335 0.018402187629685277
v -0.4 0.057735026 0.03256701669193689
v -0 0.11547005 -0.0140631488054393
v -0.09343639699118472 0.12037699684116407 -0.004480506189744166
v -0.2330816071820488 0.12437366445173567 -0.017265234919740212
v -0.3 0.11547005 0.01419216738549011
v -0 0.17320508 -0.012209121089686996
v -0.10667639424990334 0.17817893347842484 -0.027198259904809202
v -0.2 0.17320508 -0.028192090069130153
v -0 0.2309401 -0.032093635302164226
v -0.1 0.2309401 -0.023762968745209063
v -0 0.28867513 -0.022899160581274874
v -0 -0 -0.015353768682655821
v -0.1 -0 -0.001973133594756702
v -0.2 -0 -0.01639684677988568
v -0.3 -0 0.020920050798915728
v -0.4 -0 0.03567590858467881
v -0.5 -0 0.05271337083840964
v -0 -0.057735026 -0.015195858690935708
v -0.09900059077138644 -0.05477675969754204 -0.002314302509389734
v -0.16318340681363264 -0.06495417947241144 -0.019653913731819593
v -0.29442548487490694 -0.060225753280165335 0.018402187629685277
v -0.4 -0.057735026 0.03256701669193689
v -0 -0.11547005 -0.0140631488054393
v -0.09343639699118472 -0.12037699684116407 -0.004480506189744166
v -0.2330816071820488 -0.12437366445173567 -0.017265234919740212
v -0.3 -0.11547005 0.01419216738549011
v -0 -0.17320508 -0.012209121089686996
v -0.10667639424990334 -0.17817893347842484 -0.027198259904809202
v -0.2 -0.17320508 -0.028192090069130153
v -0 -0.2309401 -0.032093635302164226
v -0.1 -0.2309401 -0.023762968745209063
v -0 -0.28867513 -0.022899160581274874
vn 0 0 1
vn -1 0 0
vn 1 0 0
vn 0 -1 0
vn 0 1 0
vn 0 0 1
f 1//1 2//1 7//1 
f 7//1 2//1 8//1 
f 2//1 3//1 8//1 
f 8//1 3//1 9//1 
f 3//1 4//1 9//1 
f 9//1 4//1 10//1 
f 4//1 5//1 10//1 
f 10//1 5//1 11//1 
f 5//1 6//1 11//1 
f 7//1 8//1 12//1 
f 12//1 8//1 13//1 
f 8//1 9//1 13//1 
f 13//1 9//1 14//1 
f 9//1 10//1 14//1 
f 14//1 10//1 15//1 
f 10//1 11//1 15//1 
f 12//1 13//1 16//1 
f 16//1 13//1 17//1 
f 13//1 14//1 17//1 
f 17//1 14//1 18//1 
f 14//1 15//1 18//1 
f 16//1 17//1 19//1 
f 19//1 17//1 20//1 
f 17//1 18//1 20//1 
f 19//1 20//1 21//1 
f 28//1 23//1 22//1 
f 29//1 23//1 28//1 
f 29//1 24//1 23//1 
f 30//1 24//1 29//1 
f 30//1 25//1 24//1 
f 31//1 25//1 30//1 
f 31//1 26//1 25//1 
f 32//1 26//1 31//1 
f 32//1 27//1 26//1 
f 33//1 29//1 28//1 
f 34//1 29//1 33//1 
f 34//1 30//1 29//1 
f 35//1 30//1 34//1 
f 35//1 31//1 30//1 
f 36//1 31//1 35//1 
f 36//1 32//1 31//1 
f 37//1 34//1 33//1 
f 38//1 34//1 37//1 
f 38//1 35//1 34//1 
f 39//1 35//1 38//1 
f 39//1 36//1 35//1 
f 40//1 38//1 37//1 
f 41//1 38//1 40//1 
f 41//1 39//1 38//1 
f 42//1 41//1 40//1 
f 49//1 44//1 43//1 
f 50//1 44//1 49//1 
f 50//1 45//1 44//1 
f 51//1 45//1 50//1 
f 51//1 46//1 45//1 
f 52//1 46//1 51//1 
f 52//1 47//1 46//1 
f 53//1 47//1 52//1 
f 53//1 48//1 47//1 
f 54//1 50//1 49//1 
f 55//1 50//1 54//1 
f 55//1 51//1 50//1 
f 56//1 51//1 55//1 
f 56//1 52//1 51//1 
f 57//1 52//1 56//1 
f 57//1 53//1 52//1 
f 58//1 55//1 54//1 
f 59//1 55//1 58//1 
f 59//1 56//1 55//1 
f 60//1 56//1 59//1 
f 60//1 57//1 56//1 
f 61//1 59//1 58//1 
f 62//1 59//1 61//1 
f 62//1 60//1 59//1 
f 63//1 62//1 61//1 
f 64//1 65//1 70//1 
f 70//1 65//1 71//1 
f 65//1 66//1 71//1 
f 71//1 66//1 72//1 
f 66//1 67//1 72//1 
f 72//1 67//1 73//1 
f 67//1 68//1 73//1 
f 73//1 68//1 74//1 
f 68//1 69//1 74//1 
f 70//1 71//1 75//1 
f 75//1 71//1 76//1 
f 71//1 72//1 76//1 
f 76//1 72//1 77//1 
f 72//1 73//1 77//1 
f 77//1 73//1 78//1 
f 73//1 74//1 78//1 
f 75//1 76//1 79//1 
f 79//1 76//1 80//1 
f 76//1 77//1 80//1 
f 80//1 77//1 81//1 
f 77//1 78//1 81//1 
f 79//1 80//1 82//1 
f 82//1 80//1 83//1 
f 80//1 81//1 83//1 
f 82//1 83//1 84//1 
