# Test Code
v 0 0 -0.015353768682655821
v 0.1 0 -0.001973133594756702
v 0.2 0 -0.01639684677988568
v 0.3 0 0.020920050798915728
v 0.4 0 0.03567590858467881
v 0.5 0 0.05271337083840964
v 0 0.057735026 -0.015195858690935708
v 0.09900059077138644 0.05477675969754204 -0.002314302509389734
v 0.16318340681363264 0.06495417947241144 -0.019653913731819593
v 0.29442548487490694 0.060225753280165335 0.018402187629685277
v 0.4 0.057735026 0.03256701669193689
v 0 0.11547005 -0.0140631488054393
v 0.09343639699118472 0.12037699684116407 -0.004480506189744166
v 0.2330816071820488 0.12437366445173567 -0.017265234919740212
v 0.3 0.11547005 0.01419216738549011
v 0 0.17320508 -0.012209121089686996
v 0.10667639424990334 0.17817893347842484 -0.027198259904809202
v 0.2 0.17320508 -0.028192090069130153
v 0 0.2309401 -0.032093635302164226
v 0.1 0.2309401 -0.023762968745209063
v 0 0.28867513 -0.022899160581274874
v 0 -0 -0.015353768682655821
v 0.1 -0 -0.001973133594756702
v 0.2 -0 -0.01639684677988568
v 0.3 -0 0.020920050798915728
v 0.4 -0 0.03567590858467881
v 0.5 -0 0.05271337083840964
v 0 -0.057735026 -0.015195858690935708
v 0.09900059077138644 -0.05477675969754204 -0.002314302509389734
v 0.16318340681363264 -0.06495417947241144 -0.019653913731819593
v 0.29442548487490694 -0.060225753280165335 0.018402187629685277
v 0.4 -0.057735026 0.03256701669193689
v 0 -0.11547005 -0.0140631488054393
v 0.09343639699118472 -0.12037699684116407 -0.004480506189744166
v 0.2330816071820488 -0.12437366445173567 -0.017265234919740212
v 0.3 -0.11547005 0.01419216738549011
v 0 -0.17320508 -0.012209121089686996
v 0.10667639424990334 -0.17817893347842484 -0.027198259904809202
v 0.2 -0.17320508 -0.028192090069130153
v 0 -0.2309401 -0.032093635302164226
v 0.1 -0.2309401 -0.023762968745209063
v 0 -0.28867513 -0.022899160581274874
v -0 0 -0.015353768682655821
v -0.1 0 -0.001973133594756702
v -0.2 0 -0.01639684677988568
v -0.3 0 0.020920050798915728
v -0.4 0 0.03567590858467881
v -0.5 0 0.05271337083840964
v -0 0.057735026 -0.015195858690935708
v -0.09900059077138644 0.05477675969754204 -0.002314302509389734
v -0.16318340681363264 0.06495417947241144 -0.019653913731819593
v -0.29442548487490694 0.060225753280165335 0.018402187629685277
v -0.4 0.057735026 0.03256701669193689
v -0 0.11547005 -0.0140631488054393
v -0.09343639699118472 0.12037699684116407 -0.004480506189744166
v -0.2330816071820488 0.12437366445173567 -0.017265234919740212
v -0.3 0.11547005 0.01419216738549011
v -0 0.17320508 -0.012209121089686996
v -0.10667639424990334 0.17817893347842484 -0.027198259904809202
v -0.2 0.17320508 -0.028192090069130153
v -0 0.2309401 -0.032093635302164226
v -0.1 0.2309401 -0.023762968745209063
v -0 0.28867513 -0.022899160581274874
v -0 -0 -0.015353768682655821
v -0.1 -0 -0.001973133594756702
v -0.2 -0 -0.01639684677988568
v -0.3 -0 0.020920050798915728
v -0.4 -0 0.03567590858467881
v -0.5 -0 0.05271337083840964
v -0 -0.057735026 -0.015195858690935708
v -0.09900059077138644 -0.05477675969754204 -0.002314302509389734
v -0.16318340681363264 -0.06495417947241144 -0.019653913731819593
v -0.29442548487490694 -0.060225753280165335 0.018402187629685277
v -0.4 -0.057735026 0.03256701669193689
v -0 -0.11547005 -0.0140631488054393
v -0.09343639699118472 -0.12037699684116407 -0.004480506189744166
v -0.2330816071820488 -0.12437366445173567 -0.017265234919740212
v -0.3 -0.11547005 0.01419216738549011
v -0 -0.17320508 -0.012209121089686996
v -0.10667639424990334 -0.17817893347842484 -0.027198259904809202
v -0.2 -0.17320508 -0.028192090069130153
v -0 -0.2309401 -0.032093635302164226
v -0.1 -0.2309401 -0.023762968745209063
v -0 -0.28867513 -0.022899160581274874
vn 0 0 1
vn -1 0 0
vn 1 0 0
vn 0 -1 0
vn 0 1 0
vn 0 0 1
f 1//1 2//1 7//1 
f 7//1 2//1 8//1 
f 2//1 3//1 8//1 
f 8//1 3//1 9//1 
f 3//1 4//1 9//1 
f 9//1 4//1 10//1 
f 4//1 5//1 10//1 
f 10//1 5//1 11//1 
f 5//1 6//1 11//1 
f 7//1 8//1 12//1 

