# Test Code
v 0 0 -0.009300013875872959
v 0.083333336 0 -0.009597123975770536
v 0.16666667 0 -0.012727249256135035
v 0.25 0 0.014058687292879662
v 0.33333334 0 0.011463948109628681
v 0.4166667 0 0.043541319792059247
v 0.5 0 0.04146843934111185
v 0 0.048112523 -0.01614348902410357
v 0.08508193700088157 0.0463451013266076 -0.02329758653605823
v 0.15878267448892974 0.04048326031194954 0.0011571022700190704
v 0.24864576728538085 0.042380306762559786 -0.0026596451139793732
v 0.3353032305755105 0.05465903054970496 0.0292452925003356
v 0.4166667 0.048112523 0.032616134860273996
v 0 0.096225046 -0.028234822417425736
v 0.08628234008047092 0.09870508487758843 -0.018607997103542502
v 0.17335635775878017 0.10333551907932882 0.0030890396540180034
v 0.24793945916197593 0.09788947232635198 -0.003883265951099443
v 0.33333334 0.096225046 0.02921339296062644
v 0 0.14433756 -0.023551141712234495
v 0.07518046196203877 0.13442656415198326 -0.0027763239006762344
v 0.16505702412509454 0.14539086694849568 -0.015507862128012938
v 0.25 0.14433756 0.008706896658324992
v 0 0.19245009 -0.01235760330082442
v 0.08810583309333868 0.19781413272393594 0.00045842725785451884
v 0.16666667 0.19245009 -0.018237230251687213
v 0 0.24056262 0.0069864347217976856
v 0.083333336 0.24056262 -0.009013656544834516
v 0 0.28867513 0.00161774899616158
v 0 -0 -0.009300013875872959
v 0.083333336 -0 -0.009597123975770536
v 0.16666667 -0 -0.012727249256135035
v 0.25 -0 0.014058687292879662
v 0.33333334 -0 0.011463948109628681
v 0.4166667 -0 0.043541319792059247
v 0.5 -0 0.04146843934111185
v 0 -0.048112523 -0.01614348902410357
v 0.08508193700088157 -0.0463451013266076 -0.02329758653605823
v 0.15878267448892974 -0.04048326031194954 0.0011571022700190704
v 0.24864576728538085 -0.042380306762559786 -0.0026596451139793732
v 0.3353032305755105 -0.05465903054970496 0.0292452925003356
v 0.4166667 -0.048112523 0.032616134860273996
v 0 -0.096225046 -0.028234822417425736
v 0.08628234008047092 -0.09870508487758843 -0.018607997103542502
v 0.17335635775878017 -0.10333551907932882 0.0030890396540180034
v 0.24793945916197593 -0.09788947232635198 -0.003883265951099443
v 0.33333334 -0.096225046 0.02921339296062644
v 0 -0.14433756 -0.023551141712234495
v 0.07518046196203877 -0.13442656415198326 -0.0027763239006762344
v 0.16505702412509454 -0.14539086694849568 -0.015507862128012938
v 0.25 -0.14433756 0.008706896658324992
v 0 -0.19245009 -0.01235760330082442
v 0.08810583309333868 -0.19781413272393594 0.00045842725785451884
v 0.16666667 -0.19245009 -0.018237230251687213
v 0 -0.24056262 0.0069864347217976856
v 0.083333336 -0.24056262 -0.009013656544834516
v 0 -0.28867513 0.00161774899616158
v -0 0 -0.009300013875872959
v -0.083333336 0 -0.009597123975770536
v -0.16666667 0 -0.012727249256135035
v -0.25 0 0.014058687292879662
v -0.33333334 0 0.011463948109628681
v -0.4166667 0 0.043541319792059247
v -0.5 0 0.04146843934111185
v -0 0.048112523 -0.01614348902410357
v -0.08508193700088157 0.0463451013266076 -0.02329758653605823
v -0.15878267448892974 0.04048326031194954 0.0011571022700190704
v -0.24864576728538085 0.042380306762559786 -0.0026596451139793732
v -0.3353032305755105 0.05465903054970496 0.0292452925003356
v -0.4166667 0.048112523 0.032616134860273996
v -0 0.096225046 -0.028234822417425736
v -0.08628234008047092 0.09870508487758843 -0.018607997103542502
v -0.17335635775878017 0.10333551907932882 0.0030890396540180034
v -0.24793945916197593 0.09788947232635198 -0.003883265951099443
v -0.33333334 0.096225046 0.02921339296062644
v -0 0.14433756 -0.023551141712234495
v -0.07518046196203877 0.13442656415198326 -0.0027763239006762344
v -0.16505702412509454 0.14539086694849568 -0.015507862128012938
v -0.25 0.14433756 0.008706896658324992
v -0 0.19245009 -0.01235760330082442
v -0.08810583309333868 0.19781413272393594 0.00045842725785451884
v -0.16666667 0.19245009 -0.018237230251687213
v -0 0.24056262 0.0069864347217976856
v -0.083333336 0.24056262 -0.009013656544834516
v -0 0.28867513 0.00161774899616158
v -0 -0 -0.009300013875872959
v -0.083333336 -0 -0.009597123975770536
v -0.16666667 -0 -0.012727249256135035
v -0.25 -0 0.014058687292879662
v -0.33333334 -0 0.011463948109628681
v -0.4166667 -0 0.043541319792059247
v -0.5 -0 0.04146843934111185
v -0 -0.048112523 -0.01614348902410357
v -0.08508193700088157 -0.0463451013266076 -0.02329758653605823
v -0.15878267448892974 -0.04048326031194954 0.0011571022700190704
v -0.24864576728538085 -0.042380306762559786 -0.0026596451139793732
v -0.3353032305755105 -0.05465903054970496 0.0292452925003356
v -0.4166667 -0.048112523 0.032616134860273996
v -0 -0.096225046 -0.028234822417425736
v -0.08628234008047092 -0.09870508487758843 -0.018607997103542502
v -0.17335635775878017 -0.10333551907932882 0.0030890396540180034
v -0.24793945916197593 -0.09788947232635198 -0.003883265951099443
v -0.33333334 -0.096225046 0.02921339296062644
v -0 -0.14433756 -0.023551141712234495
v -0.07518046196203877 -0.13442656415198326 -0.0027763239006762344
v -0.16505702412509454 -0.14539086694849568 -0.015507862128012938
v -0.25 -0.14433756 0.008706896658324992
v -0 -0.19245009 -0.01235760330082442
v -0.08810583309333868 -0.19781413272393594 0.00045842725785451884
v -0.16666667 -0.19245009 -0.018237230251687213
v -0 -0.24056262 0.0069864347217976856
v -0.083333336 -0.24056262 -0.009013656544834516
v -0 -0.28867513 0.00161774899616158
vn 0 0 1
vn -1 0 0
vn 1 0 0
vn 0 -1 0
vn 0 1 0
vn 0 0 1
f 1//1 2//1 8//1 
f 8//1 2//1 9//1 
f 2//1 3//1 9//1 
f 9//1 3//1 10//1 
f 3//1 4//1 10//1 
f 10//1 4//1 11//1 
f 4//1 5//1 11//1 
f 11//1 5//1 12//1 
f 5//1 6//1 12//1 
f 12//1 6//1 13//1 
f 6//1 7//1 13//1 
f 8//1 9//1 14//1 
f 14//1 9//1 15//1 
f 9//1 10//1 15//1 
f 15//1 10//1 16//1 
f 10//1 11//1 16//1 
f 16//1 11//1 17//1 
f 11//1 12//1 17//1 
f 17//1 12//1 18//1 
f 12//1 13//1 18//1 
f 14//1 15//1 19//1 
f 19//1 15//1 20//1 
f 15//1 16//1 20//1 
f 20//1 16//1 21//1 
f 16//1 17//1 21//1 
f 21//1 17//1 22//1 
f 17//1 18//1 22//1 
f 19//1 20//1 23//1 
f 23//1 20//1 24//1 
f 20//1 21//1 24//1 
f 24//1 21//1 25//1 
f 21//1 22//1 25//1 
f 23//1 24//1 26//1 
f 26//1 24//1 27//1 
f 24//1 25//1 27//1 
f 26//1 27//1 28//1 
f 36//1 30//1 29//1 
f 37//1 30//1 36//1 
f 37//1 31//1 30//1 
f 38//1 31//1 37//1 
f 38//1 32//1 31//1 
f 39//1 32//1 38//1 
f 39//1 33//1 32//1 
f 40//1 33//1 39//1 
f 40//1 34//1 33//1 
f 41//1 34//1 40//1 
f 41//1 35//1 34//1 
f 42//1 37//1 36//1 
f 43//1 37//1 42//1 
f 43//1 38//1 37//1 
f 44//1 38//1 43//1 
f 44//1 39//1 38//1 
f 45//1 39//1 44//1 
f 45//1 40//1 39//1 
f 46//1 40//1 45//1 
f 46//1 41//1 40//1 
f 47//1 43//1 42//1 
f 48//1 43//1 47//1 
f 48//1 44//1 43//1 
f 49//1 44//1 48//1 
f 49//1 45//1 44//1 
f 50//1 45//1 49//1 
f 50//1 46//1 45//1 
f 51//1 48//1 47//1 
f 52//1 48//1 51//1 
f 52//1 49//1 48//1 
f 53//1 49//1 52//1 
f 53//1 50//1 49//1 
f 54//1 52//1 51//1 
f 55//1 52//1 54//1 
f 55//1 53//1 52//1 
f 56//1 55//1 54//1 
f 64//1 58//1 57//1 
f 65//1 58//1 64//1 
f 65//1 59//1 58//1 
f 66//1 59//1 65//1 
f 66//1 60//1 59//1 
f 67//1 60//1 66//1 
f 67//1 61//1 60//1 
f 68//1 61//1 67//1 
f 68//1 62//1 61//1 
f 69//1 62//1 68//1 
f 69//1 63//1 62//1 
f 70//1 65//1 64//1 
f 71//1 65//1 70//1 
f 71//1 66//1 65//1 
f 72//1 66//1 71//1 
f 72//1 67//1 66//1 
f 73//1 67//1 72//1 
f 73//1 68//1 67//1 
f 74//1 68//1 73//1 
f 74//1 69//1 68//1 
f 75//1 71//1 70//1 
f 76//1 71//1 75//1 
f 76//1 72//1 71//1 
f 77//1 72//1 76//1 
f 77//1 73//1 72//1 
f 78//1 73//1 77//1 
f 78//1 74//1 73//1 
f 79//1 76//1 75//1 
f 80//1 76//1 79//1 
f 80//1 77//1 76//1 
f 81//1 77//1 80//1 
f 81//1 78//1 77//1 
f 82//1 80//1 79//1 
f 83//1 80//1 82//1 
f 83//1 81//1 80//1 
f 84//1 83//1 82//1 
f 85//1 86//1 92//1 
f 92//1 86//1 93//1 
f 86//1 87//1 93//1 
f 93//1 87//1 94//1 
f 87//1 88//1 94//1 
f 94//1 88//1 95//1 
f 88//1 89//1 95//1 
f 95//1 89//1 96//1 
f 89//1 90//1 96//1 
f 96//1 90//1 97//1 
f 90//1 91//1 97//1 
f 92//1 93//1 98//1 
f 98//1 93//1 99//1 
f 93//1 94//1 99//1 
f 99//1 94//1 100//1 
f 94//1 95//1 100//1 
f 100//1 95//1 101//1 
f 95//1 96//1 101//1 
f 101//1 96//1 102//1 
f 96//1 97//1 102//1 
f 98//1 99//1 103//1 
f 103//1 99//1 104//1 
f 99//1 100//1 104//1 
f 104//1 100//1 105//1 
f 100//1 101//1 105//1 
f 105//1 101//1 106//1 
f 101//1 102//1 106//1 
f 103//1 104//1 107//1 
f 107//1 104//1 108//1 
f 104//1 105//1 108//1 
f 108//1 105//1 109//1 
f 105//1 106//1 109//1 
f 107//1 108//1 110//1 
f 110//1 108//1 111//1 
f 108//1 109//1 111//1 
f 110//1 111//1 112//1 
