# Blender v2.92.0 OBJ File: ''
# www.blender.org
mtllib untitled.mtl
o waterbomb___64PercentFolded
v 4.698452 -0.666403 -5.447234
v 3.708501 0.598365 -3.511385
v 2.237302 -1.376349 -2.973199
v 2.262298 1.081932 -5.530042
v 4.677238 -1.084513 -0.391011
v 1.926876 1.237060 -0.454051
v 0.312459 -0.615815 -3.097727
v 0.566162 1.791082 -3.799066
v -0.777309 1.300338 -5.880024
v -1.579918 1.489000 -0.857823
v -1.678141 -1.095014 -3.424024
v -2.695878 1.058471 -4.248813
v -3.390675 -0.085298 -6.378644
v -4.777386 -0.571520 0.228456
v -4.807263 -1.132936 5.270739
v -2.420147 -1.643754 2.677908
v -3.650609 0.352400 3.602490
v -2.180548 0.262591 5.659428
v -1.769849 1.348554 0.704199
v -0.419764 -1.157305 2.923727
v -0.391621 1.082786 4.077260
v -4.572541 -0.420046 -1.456059
v -2.686138 -1.739102 -0.483769
v -3.570896 0.466283 2.176541
v -2.959939 0.918098 -2.847668
v 0.859065 0.044202 6.009404
v 1.736935 1.096603 1.107972
v 1.495300 -1.925082 3.128716
v 2.753765 -0.107679 4.339864
v 3.281858 -1.714004 6.202116
v 4.472414 -1.235980 1.293477
v 2.453154 -2.108348 0.107953
v 3.626400 0.444919 -2.089320
v 3.015426 -0.006880 2.934899
v 1.015689 -0.952371 0.037128
v -1.121648 -0.798812 -0.208977
v -0.215994 1.240709 2.650482
v 0.394092 1.691876 -2.366574
vt 0.999999 0.000000
vt 0.833333 0.000000
vt 0.833332 0.166667
vt 0.666665 0.000000
vt 0.999999 0.333334
vt 0.666665 0.333334
vt 0.499999 0.166666
vt 0.500000 0.000000
vt 0.333333 0.000000
vt 0.333332 0.333334
vt 0.166666 0.166667
vt 0.166666 0.000000
vt 0.000000 0.000000
vt 0.000000 0.666666
vt 0.000000 1.000000
vt 0.166666 0.833333
vt 0.166666 1.000000
vt 0.333332 1.000000
vt 0.333333 0.666666
vt 0.499999 0.833333
vt 0.500000 1.000000
vt 0.000000 0.333334
vt 0.000000 0.500000
vt 0.166666 0.666667
vt 0.166666 0.333333
vt 0.666665 1.000000
vt 0.666665 0.666666
vt 0.833332 0.833333
vt 0.833333 1.000000
vt 0.999999 1.000000
vt 0.999999 0.666666
vt 0.999999 0.499999
vt 0.833333 0.333333
vt 0.833332 0.666667
vt 0.666665 0.500000
vt 0.333333 0.499999
vt 0.500000 0.666667
vt 0.500000 0.333333
vn 0.7103 -0.3652 0.6018
vn -0.5844 0.5878 0.5595
vn -0.2013 0.9763 0.0799
vn 0.9963 0.0565 0.0641
vn -0.7021 0.7088 -0.0681
vn 0.7330 0.1179 0.6699
vn -0.8413 0.2311 0.4887
vn 0.7921 0.6015 0.1040
vn -0.9668 0.1976 -0.1619
vn 0.5196 0.5085 0.6866
vn -0.8722 -0.2515 0.4196
vn 0.3176 0.9422 0.1068
vn -0.7418 -0.1551 -0.6524
vn 0.6570 0.6101 -0.4429
vn -0.9816 0.1866 -0.0405
vn 0.7811 0.5933 0.1948
vn -0.7057 0.3313 -0.6262
vn 0.3137 0.9393 0.1392
vn 0.2443 0.7849 -0.5694
vn -0.7501 -0.2651 0.6058
vn 0.0850 0.6671 0.7401
vn -0.9654 -0.2216 -0.1373
vn -0.5787 -0.1384 -0.8037
vn 0.8686 0.2182 -0.4449
vn -0.7131 0.7007 0.0227
vn 0.9816 0.0456 0.1856
vn -0.4470 0.6894 -0.5700
vn 0.8406 -0.2688 -0.4702
vn -0.1974 0.9792 0.0475
vn -0.1552 0.6844 0.7124
vn 0.7200 -0.2317 -0.6542
vn 0.0040 0.8022 -0.5971
vn 0.5486 -0.3584 0.7554
vn -0.5407 0.4971 0.6786
vn 0.8217 0.0086 -0.5699
vn -0.4561 0.8896 0.0245
vn 0.9303 -0.3578 0.0810
vn -0.6619 0.1152 -0.7407
vn 0.7114 0.4458 -0.5433
vn -0.7705 0.1364 0.6227
vn 0.4378 0.4268 0.7913
vn -0.8760 0.4781 -0.0635
vn -0.5000 0.5328 -0.6828
vn 0.5596 0.8166 0.1415
vn 0.6211 0.0364 0.7829
vn -0.6592 0.4150 0.6270
vn 0.7885 0.1602 -0.5938
vn -0.3743 0.6201 -0.6894
vn 0.6623 -0.1093 0.7412
vn -0.6031 0.2602 -0.7540
vn 0.9262 0.3486 0.1440
vn 0.5521 0.3280 0.7665
vn -0.8213 -0.0027 0.5704
vn 0.6042 0.5498 -0.5768
usemtl Default_OBJ
s off
f 1/1/1 2/2/1 3/3/1
f 3/3/2 2/2/2 4/4/2
f 5/5/3 1/1/3 3/3/3
f 3/3/4 4/4/4 6/6/4
f 6/6/5 4/4/5 7/7/5
f 7/7/6 4/4/6 8/8/6
f 7/7/7 8/8/7 9/9/7
f 7/7/8 9/9/8 10/10/8
f 10/10/9 9/9/9 11/11/9
f 11/11/10 9/9/10 12/12/10
f 11/11/11 12/12/11 13/13/11
f 14/14/12 15/15/12 16/16/12
f 16/16/13 15/15/13 17/17/13
f 16/16/14 17/17/14 18/18/14
f 16/16/15 18/18/15 19/19/15
f 19/19/16 18/18/16 20/20/16
f 20/20/17 18/18/17 21/21/17
f 11/11/18 13/13/18 22/22/18
f 23/23/19 14/14/19 24/24/19
f 24/24/20 14/14/20 16/16/20
f 22/22/21 23/23/21 25/25/21
f 25/25/22 23/23/22 24/24/22
f 11/11/23 22/22/23 25/25/23
f 20/20/24 21/21/24 26/26/24
f 20/20/25 26/26/25 27/27/25
f 27/27/26 26/26/26 28/28/26
f 28/28/27 26/26/27 29/29/27
f 28/28/28 29/29/28 30/30/28
f 28/28/29 30/30/29 31/31/29
f 32/32/30 5/5/30 33/33/30
f 33/33/31 5/5/31 3/3/31
f 34/34/32 31/31/32 32/32/32
f 28/28/33 31/31/33 34/34/33
f 28/28/34 34/34/34 27/27/34
f 27/27/35 34/34/35 35/35/35
f 35/35/36 34/34/36 33/33/36
f 33/33/37 34/34/37 32/32/37
f 24/24/38 19/19/38 36/36/38
f 36/36/39 19/19/39 37/37/39
f 37/37/40 19/19/40 20/20/40
f 16/16/41 19/19/41 24/24/41
f 36/36/42 37/37/42 38/38/42
f 35/35/43 37/37/43 27/27/43
f 25/25/44 24/24/44 36/36/44
f 20/20/45 27/27/45 37/37/45
f 35/35/46 6/6/46 38/38/46
f 38/38/47 6/6/47 7/7/47
f 3/3/48 6/6/48 33/33/48
f 33/33/49 6/6/49 35/35/49
f 10/10/50 38/38/50 7/7/50
f 35/35/51 38/38/51 37/37/51
f 36/36/52 38/38/52 10/10/52
f 36/36/53 10/10/53 25/25/53
f 25/25/54 10/10/54 11/11/54
