# Blender v2.92.0 OBJ File: ''
# www.blender.org
mtllib untitled2.mtl
o waterbomb2___38PercentFolded
v 5.872596 -1.425953 -4.779600
v 4.516098 0.468150 -3.833635
v 3.515800 -1.094680 -2.125841
v 2.203018 0.916795 -4.747053
v 6.124118 -1.636996 0.278503
v 2.375912 1.328787 0.325777
v 0.000202 0.082261 -2.102494
v 0.000211 1.838806 -3.907327
v -2.202612 0.916780 -4.747049
v -2.375521 1.328771 0.325781
v -3.515385 -1.094687 -2.125828
v -4.515673 0.468141 -3.833635
v -5.872164 -1.425971 -4.779590
v -6.123691 -1.636995 0.278513
v -6.136085 -1.447429 4.047101
v -4.180378 -0.031866 4.775418
v -4.728795 -2.397950 2.182924
v -4.516499 0.201401 -0.308190
v -1.847242 -0.183418 2.115377
v -2.377192 1.510846 3.902424
v 4.729225 -2.397952 2.182904
v 4.516927 0.201402 -0.308199
v 4.180802 -0.031850 4.775409
v 6.136512 -1.447413 4.047100
v 0.000218 1.309765 4.746708
v 0.000215 1.719961 -0.342077
v 1.847658 -0.183410 2.115386
v 2.377605 1.510852 3.902421
vt 1.000000 0.000000
vt 0.833334 0.000000
vt 0.833333 0.166667
vt 0.666666 0.000000
vt 1.000000 0.333334
vt 0.666666 0.333334
vt 0.499999 0.166667
vt 0.500000 0.000000
vt 0.333333 0.000000
vt 0.333332 0.333334
vt 0.166666 0.166667
vt 0.166666 0.000000
vt 0.000000 0.000000
vt 0.000000 0.333334
vt 0.000000 0.666667
vt 0.166666 0.666668
vt 0.000000 0.500000
vt 0.166666 0.333333
vt 0.333333 0.499999
vt 0.333333 0.666667
vt 1.000000 0.499999
vt 0.833334 0.333333
vt 0.833332 0.666668
vt 0.999999 0.666668
vt 0.500000 0.666668
vt 0.500000 0.333333
vt 0.666666 0.500000
vt 0.666666 0.666667
vn 0.7433 0.2161 0.6331
vn -0.1038 0.7633 0.6377
vn 0.1748 0.9841 0.0324
vn 0.8741 0.4808 -0.0688
vn -0.4154 0.9077 -0.0596
vn 0.4925 0.6237 0.6070
vn -0.4925 0.6237 0.6070
vn 0.4154 0.9077 -0.0596
vn -0.8741 0.4808 -0.0688
vn 0.1038 0.7633 0.6377
vn -0.7433 0.2161 0.6331
vn -0.1748 0.9841 0.0324
vn -0.3061 0.7345 -0.6056
vn -0.9861 0.1496 0.0721
vn 0.1083 0.9934 0.0384
vn -0.6652 0.4333 -0.6081
vn -0.4909 0.6234 0.6086
vn -0.6684 0.3803 -0.6393
vn 0.4909 0.6234 0.6086
vn 0.6684 0.3803 -0.6393
vn 0.3061 0.7345 -0.6056
vn 0.2808 0.7367 -0.6152
vn -0.6771 0.7335 0.0591
vn -0.2808 0.7367 -0.6152
vn 0.6651 0.4333 -0.6081
vn -0.1083 0.9934 0.0384
vn 0.9861 0.1496 0.0721
vn -0.0518 0.7703 0.6356
vn 0.2979 0.6989 -0.6502
vn 0.2012 0.7418 -0.6397
vn 0.4976 0.5846 0.6408
vn -0.2979 0.6989 -0.6502
vn 0.6771 0.7335 0.0591
vn 0.0518 0.7703 0.6356
vn -0.4976 0.5846 0.6408
vn -0.2012 0.7418 -0.6397
usemtl Default_OBJ
s off
f 1/1/1 2/2/1 3/3/1
f 3/3/2 2/2/2 4/4/2
f 5/5/3 1/1/3 3/3/3
f 3/3/4 4/4/4 6/6/4
f 6/6/5 4/4/5 7/7/5
f 7/7/6 4/4/6 8/8/6
f 7/7/7 8/8/7 9/9/7
f 7/7/8 9/9/8 10/10/8
f 10/10/9 9/9/9 11/11/9
f 11/11/10 9/9/10 12/12/10
f 11/11/11 12/12/11 13/13/11
f 11/11/12 13/13/12 14/14/12
f 15/15/13 16/16/13 17/17/13
f 17/17/14 16/16/14 18/18/14
f 18/18/15 16/16/15 19/19/15
f 19/19/16 16/16/16 20/20/16
f 14/14/17 17/17/17 18/18/17
f 11/11/18 14/14/18 18/18/18
f 21/21/19 5/5/19 22/22/19
f 22/22/20 5/5/20 3/3/20
f 23/23/21 24/24/21 21/21/21
f 19/19/22 20/20/22 25/25/22
f 19/19/23 25/25/23 26/26/23
f 27/27/24 25/25/24 28/28/24
f 28/28/25 23/23/25 27/27/25
f 27/27/26 23/23/26 22/22/26
f 22/22/27 23/23/27 21/21/27
f 27/27/28 6/6/28 26/26/28
f 26/26/29 6/6/29 7/7/29
f 3/3/30 6/6/30 22/22/30
f 22/22/31 6/6/31 27/27/31
f 10/10/32 26/26/32 7/7/32
f 27/27/33 26/26/33 25/25/33
f 19/19/34 26/26/34 10/10/34
f 19/19/35 10/10/35 18/18/35
f 18/18/36 10/10/36 11/11/36
